<?xml version="1.0" standalone="no"?>
 <!DOCTYPE svg PUBLIC "-//W3C//DTD SVG 1.1//EN" 
 "http://www.w3.org/Graphics/SVG/1.1/DTD/svg11.dtd"> 
<svg
  xmlns:svg="http://www.w3.org/2000/svg"
  xmlns="http://www.w3.org/2000/svg"
  xmlns:xlink="http://www.w3.org/1999/xlink"
  xmlns:inkscape="http://www.inkscape.org/namespaces/inkscape"
  version="1.1"
  width="59.9948mm" height="93.9800mm" viewBox="0.0000 0.0000 59.9948 93.9800">
<title>SVG Image created as track-rounding-fixture-top.svg date 2026-09-12T09:37:35 </title>
  <desc>Image generated by PCBNEW </desc>
<g style="fill:#000000; fill-opacity:1.0000;stroke:#000000; stroke-opacity:1.0000;
stroke-linecap:round; stroke-linejoin:round;"
 transform="translate(0 0) scale(1 1)">
</g>
<g style="fill:#C83434; fill-opacity:1.0000; stroke:none;">
<circle cx="53.0000" cy="19.0000" r="1.0000" /> 
<circle cx="53.0000" cy="84.0000" r="1.0000" /> 
<circle cx="7.0000" cy="32.0000" r="1.0000" /> 
<circle cx="53.0000" cy="32.0000" r="1.0000" /> 
<circle cx="7.0000" cy="84.0000" r="1.0000" /> 
<circle cx="7.0000" cy="60.0000" r="1.0000" /> 
<circle cx="53.0000" cy="88.0000" r="1.0000" /> 
<circle cx="7.0000" cy="88.0000" r="1.0000" /> 
<circle cx="53.0000" cy="60.0000" r="1.0000" /> 
<circle cx="7.0000" cy="19.0000" r="1.0000" /> 
<circle cx="7.0000" cy="72.0000" r="1.0000" /> 
<circle cx="53.0000" cy="50.0000" r="1.0000" /> 
<circle cx="7.0000" cy="45.0000" r="1.0000" /> 
<circle cx="25.0000" cy="78.0000" r="0.5000" /> 
</g>
<g style="fill:none; 
stroke:#C83434; stroke-width:0.2500; stroke-opacity:1; 
stroke-linecap:round; stroke-linejoin:round;">
<path d="M38.0000 19.0000
L53.0000 19.0000
" />
<path d="M38.0000 24.0000
L38.0000 19.0000
" />
<path d="M19.0000 19.0000
L19.0000 24.0000
" />
<path d="M19.0000 24.0000
L38.0000 24.0000
" />
<path d="M7.0000 19.0000
L19.0000 19.0000
" />
<path d="M7.0000 32.0000
L19.0000 32.0000
" />
<path d="M42.0000 32.0000
L53.0000 32.0000
" />
<path d="M26.0000 39.0000
L35.0000 39.0000
" />
<path d="M19.0000 32.0000
L26.0000 39.0000
" />
<path d="M35.0000 39.0000
L42.0000 32.0000
" />
</g>
<g style="fill:none; 
stroke:#C83434; stroke-width:0.5000; stroke-opacity:1; 
stroke-linecap:round; stroke-linejoin:round;">
<path d="M7.0000 45.0000
L18.0000 45.0000
" />
<path d="M30.0000 45.0000
L39.0000 45.0000
" />
<path d="M39.0000 45.0000
L44.0000 50.0000
" />
<path d="M24.0000 51.0000
L30.0000 45.0000
" />
<path d="M18.0000 45.0000
L24.0000 51.0000
" />
<path d="M44.0000 50.0000
L53.0000 50.0000
" />
</g>
<g style="fill:none; 
stroke:#C83434; stroke-width:1.0000; stroke-opacity:1; 
stroke-linecap:round; stroke-linejoin:round;">
<path d="M23.0000 62.0000
L25.0000 60.0000
" />
<path d="M21.0000 60.0000
L23.0000 62.0000
" />
<path d="M25.0000 60.0000
L53.0000 60.0000
" />
<path d="M7.0000 60.0000
L21.0000 60.0000
" />
</g>
<g style="fill:none; 
stroke:#C83434; stroke-width:0.5000; stroke-opacity:1; 
stroke-linecap:round; stroke-linejoin:round;">
<path d="M7.0000 72.0000
L19.0000 72.0000
" />
<path d="M19.0000 72.0000
L25.0000 78.0000
" />
</g>
<g style="fill:none; 
stroke:#C83434; stroke-width:0.2500; stroke-opacity:1; 
stroke-linecap:round; stroke-linejoin:round;">
<path d="M35.0000 78.0000
L41.0000 84.0000
" />
<path d="M41.0000 84.0000
L53.0000 84.0000
" />
<path d="M27.0000 78.0000
L35.0000 78.0000
" />
<path d="M7.0000 84.0000
L21.0000 84.0000
" />
<path d="M21.0000 84.0000
L27.0000 78.0000
" />
<path d="M7.0000 88.0000
L21.0000 88.0000
" />
<path d="M27.0000 82.0000
L35.0000 82.0000
" />
<path d="M21.0000 88.0000
L27.0000 82.0000
" />
<path d="M41.0000 88.0000
L53.0000 88.0000
" />
<path d="M35.0000 82.0000
L41.0000 88.0000
" />
</g>
<g style="fill:#4D7FC4; fill-opacity:1.0000; stroke:none;">
<circle cx="53.0000" cy="71.0000" r="1.0000" /> 
<circle cx="25.0000" cy="78.0000" r="0.5000" /> 
</g>
<g style="fill:none; 
stroke:#4D7FC4; stroke-width:0.5000; stroke-opacity:1; 
stroke-linecap:round; stroke-linejoin:round;">
<path d="M32.0000 71.0000
L53.0000 71.0000
" />
<path d="M25.0000 78.0000
L32.0000 71.0000
" />
</g>
<g style="fill:none; 
stroke:#F2EDA1; stroke-width:0.1200; stroke-opacity:1; 
stroke-linecap:round; stroke-linejoin:round;">
<text x="15.0000" y="76.4000"
textLength="13.8762" font-size="1.0667" lengthAdjust="spacingAndGlyphs"
text-anchor="middle" opacity="0" stroke-opacity="0">C6  CLEARANCE_A_025</text>
<g class="stroked-text"><desc>C6  CLEARANCE_A_025</desc>
<path d="M8.8095 76.2877
L8.7714 76.3258
" />
<path d="M8.7714 76.3258
L8.6571 76.3639
" />
<path d="M8.6571 76.3639
L8.5810 76.3639
" />
<path d="M8.5810 76.3639
L8.4667 76.3258
" />
<path d="M8.4667 76.3258
L8.3905 76.2496
" />
<path d="M8.3905 76.2496
L8.3524 76.1734
" />
<path d="M8.3524 76.1734
L8.3143 76.0210
" />
<path d="M8.3143 76.0210
L8.3143 75.9067
" />
<path d="M8.3143 75.9067
L8.3524 75.7543
" />
<path d="M8.3524 75.7543
L8.3905 75.6781
" />
<path d="M8.3905 75.6781
L8.4667 75.6020
" />
<path d="M8.4667 75.6020
L8.5810 75.5639
" />
<path d="M8.5810 75.5639
L8.6571 75.5639
" />
<path d="M8.6571 75.5639
L8.7714 75.6020
" />
<path d="M8.7714 75.6020
L8.8095 75.6400
" />
<path d="M9.4952 75.5639
L9.3429 75.5639
" />
<path d="M9.3429 75.5639
L9.2667 75.6020
" />
<path d="M9.2667 75.6020
L9.2286 75.6400
" />
<path d="M9.2286 75.6400
L9.1524 75.7543
" />
<path d="M9.1524 75.7543
L9.1143 75.9067
" />
<path d="M9.1143 75.9067
L9.1143 76.2115
" />
<path d="M9.1143 76.2115
L9.1524 76.2877
" />
<path d="M9.1524 76.2877
L9.1905 76.3258
" />
<path d="M9.1905 76.3258
L9.2667 76.3639
" />
<path d="M9.2667 76.3639
L9.4190 76.3639
" />
<path d="M9.4190 76.3639
L9.4952 76.3258
" />
<path d="M9.4952 76.3258
L9.5333 76.2877
" />
<path d="M9.5333 76.2877
L9.5714 76.2115
" />
<path d="M9.5714 76.2115
L9.5714 76.0210
" />
<path d="M9.5714 76.0210
L9.5333 75.9448
" />
<path d="M9.5333 75.9448
L9.4952 75.9067
" />
<path d="M9.4952 75.9067
L9.4190 75.8686
" />
<path d="M9.4190 75.8686
L9.2667 75.8686
" />
<path d="M9.2667 75.8686
L9.1905 75.9067
" />
<path d="M9.1905 75.9067
L9.1524 75.9448
" />
<path d="M9.1524 75.9448
L9.1143 76.0210
" />
<path d="M11.5905 76.2877
L11.5524 76.3258
" />
<path d="M11.5524 76.3258
L11.4381 76.3639
" />
<path d="M11.4381 76.3639
L11.3619 76.3639
" />
<path d="M11.3619 76.3639
L11.2476 76.3258
" />
<path d="M11.2476 76.3258
L11.1714 76.2496
" />
<path d="M11.1714 76.2496
L11.1333 76.1734
" />
<path d="M11.1333 76.1734
L11.0952 76.0210
" />
<path d="M11.0952 76.0210
L11.0952 75.9067
" />
<path d="M11.0952 75.9067
L11.1333 75.7543
" />
<path d="M11.1333 75.7543
L11.1714 75.6781
" />
<path d="M11.1714 75.6781
L11.2476 75.6020
" />
<path d="M11.2476 75.6020
L11.3619 75.5639
" />
<path d="M11.3619 75.5639
L11.4381 75.5639
" />
<path d="M11.4381 75.5639
L11.5524 75.6020
" />
<path d="M11.5524 75.6020
L11.5905 75.6400
" />
<path d="M12.3143 76.3639
L11.9333 76.3639
" />
<path d="M11.9333 76.3639
L11.9333 75.5639
" />
<path d="M12.5810 75.9448
L12.8476 75.9448
" />
<path d="M12.9619 76.3639
L12.5810 76.3639
" />
<path d="M12.5810 76.3639
L12.5810 75.5639
" />
<path d="M12.5810 75.5639
L12.9619 75.5639
" />
<path d="M13.2667 76.1353
L13.6476 76.1353
" />
<path d="M13.1905 76.3639
L13.4571 75.5639
" />
<path d="M13.4571 75.5639
L13.7238 76.3639
" />
<path d="M14.4476 76.3639
L14.1810 75.9829
" />
<path d="M13.9905 76.3639
L13.9905 75.5639
" />
<path d="M13.9905 75.5639
L14.2952 75.5639
" />
<path d="M14.2952 75.5639
L14.3714 75.6020
" />
<path d="M14.3714 75.6020
L14.4095 75.6400
" />
<path d="M14.4095 75.6400
L14.4476 75.7162
" />
<path d="M14.4476 75.7162
L14.4476 75.8305
" />
<path d="M14.4476 75.8305
L14.4095 75.9067
" />
<path d="M14.4095 75.9067
L14.3714 75.9448
" />
<path d="M14.3714 75.9448
L14.2952 75.9829
" />
<path d="M14.2952 75.9829
L13.9905 75.9829
" />
<path d="M14.7524 76.1353
L15.1333 76.1353
" />
<path d="M14.6762 76.3639
L14.9429 75.5639
" />
<path d="M14.9429 75.5639
L15.2095 76.3639
" />
<path d="M15.4762 76.3639
L15.4762 75.5639
" />
<path d="M15.4762 75.5639
L15.9333 76.3639
" />
<path d="M15.9333 76.3639
L15.9333 75.5639
" />
<path d="M16.7714 76.2877
L16.7333 76.3258
" />
<path d="M16.7333 76.3258
L16.6190 76.3639
" />
<path d="M16.6190 76.3639
L16.5429 76.3639
" />
<path d="M16.5429 76.3639
L16.4286 76.3258
" />
<path d="M16.4286 76.3258
L16.3524 76.2496
" />
<path d="M16.3524 76.2496
L16.3143 76.1734
" />
<path d="M16.3143 76.1734
L16.2762 76.0210
" />
<path d="M16.2762 76.0210
L16.2762 75.9067
" />
<path d="M16.2762 75.9067
L16.3143 75.7543
" />
<path d="M16.3143 75.7543
L16.3524 75.6781
" />
<path d="M16.3524 75.6781
L16.4286 75.6020
" />
<path d="M16.4286 75.6020
L16.5429 75.5639
" />
<path d="M16.5429 75.5639
L16.6190 75.5639
" />
<path d="M16.6190 75.5639
L16.7333 75.6020
" />
<path d="M16.7333 75.6020
L16.7714 75.6400
" />
<path d="M17.1143 75.9448
L17.3810 75.9448
" />
<path d="M17.4952 76.3639
L17.1143 76.3639
" />
<path d="M17.1143 76.3639
L17.1143 75.5639
" />
<path d="M17.1143 75.5639
L17.4952 75.5639
" />
<path d="M17.6476 76.4400
L18.2571 76.4400
" />
<path d="M18.4095 76.1353
L18.7905 76.1353
" />
<path d="M18.3333 76.3639
L18.6000 75.5639
" />
<path d="M18.6000 75.5639
L18.8667 76.3639
" />
<path d="M18.9429 76.4400
L19.5524 76.4400
" />
<path d="M19.8952 75.5639
L19.9714 75.5639
" />
<path d="M19.9714 75.5639
L20.0476 75.6020
" />
<path d="M20.0476 75.6020
L20.0857 75.6400
" />
<path d="M20.0857 75.6400
L20.1238 75.7162
" />
<path d="M20.1238 75.7162
L20.1619 75.8686
" />
<path d="M20.1619 75.8686
L20.1619 76.0591
" />
<path d="M20.1619 76.0591
L20.1238 76.2115
" />
<path d="M20.1238 76.2115
L20.0857 76.2877
" />
<path d="M20.0857 76.2877
L20.0476 76.3258
" />
<path d="M20.0476 76.3258
L19.9714 76.3639
" />
<path d="M19.9714 76.3639
L19.8952 76.3639
" />
<path d="M19.8952 76.3639
L19.8190 76.3258
" />
<path d="M19.8190 76.3258
L19.7810 76.2877
" />
<path d="M19.7810 76.2877
L19.7429 76.2115
" />
<path d="M19.7429 76.2115
L19.7048 76.0591
" />
<path d="M19.7048 76.0591
L19.7048 75.8686
" />
<path d="M19.7048 75.8686
L19.7429 75.7162
" />
<path d="M19.7429 75.7162
L19.7810 75.6400
" />
<path d="M19.7810 75.6400
L19.8190 75.6020
" />
<path d="M19.8190 75.6020
L19.8952 75.5639
" />
<path d="M20.4667 75.6400
L20.5048 75.6020
" />
<path d="M20.5048 75.6020
L20.5810 75.5639
" />
<path d="M20.5810 75.5639
L20.7714 75.5639
" />
<path d="M20.7714 75.5639
L20.8476 75.6020
" />
<path d="M20.8476 75.6020
L20.8857 75.6400
" />
<path d="M20.8857 75.6400
L20.9238 75.7162
" />
<path d="M20.9238 75.7162
L20.9238 75.7924
" />
<path d="M20.9238 75.7924
L20.8857 75.9067
" />
<path d="M20.8857 75.9067
L20.4286 76.3639
" />
<path d="M20.4286 76.3639
L20.9238 76.3639
" />
<path d="M21.6476 75.5639
L21.2667 75.5639
" />
<path d="M21.2667 75.5639
L21.2286 75.9448
" />
<path d="M21.2286 75.9448
L21.2667 75.9067
" />
<path d="M21.2667 75.9067
L21.3429 75.8686
" />
<path d="M21.3429 75.8686
L21.5333 75.8686
" />
<path d="M21.5333 75.8686
L21.6095 75.9067
" />
<path d="M21.6095 75.9067
L21.6476 75.9448
" />
<path d="M21.6476 75.9448
L21.6857 76.0210
" />
<path d="M21.6857 76.0210
L21.6857 76.2115
" />
<path d="M21.6857 76.2115
L21.6476 76.2877
" />
<path d="M21.6476 76.2877
L21.6095 76.3258
" />
<path d="M21.6095 76.3258
L21.5333 76.3639
" />
<path d="M21.5333 76.3639
L21.3429 76.3639
" />
<path d="M21.3429 76.3639
L21.2667 76.3258
" />
<path d="M21.2667 76.3258
L21.2286 76.2877
" />
</g><text x="30.0000" y="16.4000"
textLength="13.6095" font-size="1.0667" lengthAdjust="spacingAndGlyphs"
text-anchor="middle" opacity="0" stroke-opacity="0">C1  ORTHOGONAL_025</text>
<g class="stroked-text"><desc>C1  ORTHOGONAL_025</desc>
<path d="M23.9429 16.2877
L23.9048 16.3258
" />
<path d="M23.9048 16.3258
L23.7905 16.3639
" />
<path d="M23.7905 16.3639
L23.7143 16.3639
" />
<path d="M23.7143 16.3639
L23.6000 16.3258
" />
<path d="M23.6000 16.3258
L23.5238 16.2496
" />
<path d="M23.5238 16.2496
L23.4857 16.1734
" />
<path d="M23.4857 16.1734
L23.4476 16.0210
" />
<path d="M23.4476 16.0210
L23.4476 15.9067
" />
<path d="M23.4476 15.9067
L23.4857 15.7543
" />
<path d="M23.4857 15.7543
L23.5238 15.6781
" />
<path d="M23.5238 15.6781
L23.6000 15.6019
" />
<path d="M23.6000 15.6019
L23.7143 15.5639
" />
<path d="M23.7143 15.5639
L23.7905 15.5639
" />
<path d="M23.7905 15.5639
L23.9048 15.6019
" />
<path d="M23.9048 15.6019
L23.9429 15.6400
" />
<path d="M24.7048 16.3639
L24.2476 16.3639
" />
<path d="M24.4762 16.3639
L24.4762 15.5639
" />
<path d="M24.4762 15.5639
L24.4000 15.6781
" />
<path d="M24.4000 15.6781
L24.3238 15.7543
" />
<path d="M24.3238 15.7543
L24.2476 15.7924
" />
<path d="M26.4190 15.5639
L26.5714 15.5639
" />
<path d="M26.5714 15.5639
L26.6476 15.6019
" />
<path d="M26.6476 15.6019
L26.7238 15.6781
" />
<path d="M26.7238 15.6781
L26.7619 15.8305
" />
<path d="M26.7619 15.8305
L26.7619 16.0972
" />
<path d="M26.7619 16.0972
L26.7238 16.2496
" />
<path d="M26.7238 16.2496
L26.6476 16.3258
" />
<path d="M26.6476 16.3258
L26.5714 16.3639
" />
<path d="M26.5714 16.3639
L26.4190 16.3639
" />
<path d="M26.4190 16.3639
L26.3429 16.3258
" />
<path d="M26.3429 16.3258
L26.2667 16.2496
" />
<path d="M26.2667 16.2496
L26.2286 16.0972
" />
<path d="M26.2286 16.0972
L26.2286 15.8305
" />
<path d="M26.2286 15.8305
L26.2667 15.6781
" />
<path d="M26.2667 15.6781
L26.3429 15.6019
" />
<path d="M26.3429 15.6019
L26.4190 15.5639
" />
<path d="M27.5619 16.3639
L27.2952 15.9829
" />
<path d="M27.1048 16.3639
L27.1048 15.5639
" />
<path d="M27.1048 15.5639
L27.4095 15.5639
" />
<path d="M27.4095 15.5639
L27.4857 15.6019
" />
<path d="M27.4857 15.6019
L27.5238 15.6400
" />
<path d="M27.5238 15.6400
L27.5619 15.7162
" />
<path d="M27.5619 15.7162
L27.5619 15.8305
" />
<path d="M27.5619 15.8305
L27.5238 15.9067
" />
<path d="M27.5238 15.9067
L27.4857 15.9448
" />
<path d="M27.4857 15.9448
L27.4095 15.9829
" />
<path d="M27.4095 15.9829
L27.1048 15.9829
" />
<path d="M27.7905 15.5639
L28.2476 15.5639
" />
<path d="M28.0190 16.3639
L28.0190 15.5639
" />
<path d="M28.5143 16.3639
L28.5143 15.5639
" />
<path d="M28.5143 15.9448
L28.9714 15.9448
" />
<path d="M28.9714 16.3639
L28.9714 15.5639
" />
<path d="M29.5048 15.5639
L29.6571 15.5639
" />
<path d="M29.6571 15.5639
L29.7333 15.6019
" />
<path d="M29.7333 15.6019
L29.8095 15.6781
" />
<path d="M29.8095 15.6781
L29.8476 15.8305
" />
<path d="M29.8476 15.8305
L29.8476 16.0972
" />
<path d="M29.8476 16.0972
L29.8095 16.2496
" />
<path d="M29.8095 16.2496
L29.7333 16.3258
" />
<path d="M29.7333 16.3258
L29.6571 16.3639
" />
<path d="M29.6571 16.3639
L29.5048 16.3639
" />
<path d="M29.5048 16.3639
L29.4286 16.3258
" />
<path d="M29.4286 16.3258
L29.3524 16.2496
" />
<path d="M29.3524 16.2496
L29.3143 16.0972
" />
<path d="M29.3143 16.0972
L29.3143 15.8305
" />
<path d="M29.3143 15.8305
L29.3524 15.6781
" />
<path d="M29.3524 15.6781
L29.4286 15.6019
" />
<path d="M29.4286 15.6019
L29.5048 15.5639
" />
<path d="M30.6095 15.6019
L30.5333 15.5639
" />
<path d="M30.5333 15.5639
L30.4190 15.5639
" />
<path d="M30.4190 15.5639
L30.3048 15.6019
" />
<path d="M30.3048 15.6019
L30.2286 15.6781
" />
<path d="M30.2286 15.6781
L30.1905 15.7543
" />
<path d="M30.1905 15.7543
L30.1524 15.9067
" />
<path d="M30.1524 15.9067
L30.1524 16.0210
" />
<path d="M30.1524 16.0210
L30.1905 16.1734
" />
<path d="M30.1905 16.1734
L30.2286 16.2496
" />
<path d="M30.2286 16.2496
L30.3048 16.3258
" />
<path d="M30.3048 16.3258
L30.4190 16.3639
" />
<path d="M30.4190 16.3639
L30.4952 16.3639
" />
<path d="M30.4952 16.3639
L30.6095 16.3258
" />
<path d="M30.6095 16.3258
L30.6476 16.2877
" />
<path d="M30.6476 16.2877
L30.6476 16.0210
" />
<path d="M30.6476 16.0210
L30.4952 16.0210
" />
<path d="M31.1429 15.5639
L31.2952 15.5639
" />
<path d="M31.2952 15.5639
L31.3714 15.6019
" />
<path d="M31.3714 15.6019
L31.4476 15.6781
" />
<path d="M31.4476 15.6781
L31.4857 15.8305
" />
<path d="M31.4857 15.8305
L31.4857 16.0972
" />
<path d="M31.4857 16.0972
L31.4476 16.2496
" />
<path d="M31.4476 16.2496
L31.3714 16.3258
" />
<path d="M31.3714 16.3258
L31.2952 16.3639
" />
<path d="M31.2952 16.3639
L31.1429 16.3639
" />
<path d="M31.1429 16.3639
L31.0667 16.3258
" />
<path d="M31.0667 16.3258
L30.9905 16.2496
" />
<path d="M30.9905 16.2496
L30.9524 16.0972
" />
<path d="M30.9524 16.0972
L30.9524 15.8305
" />
<path d="M30.9524 15.8305
L30.9905 15.6781
" />
<path d="M30.9905 15.6781
L31.0667 15.6019
" />
<path d="M31.0667 15.6019
L31.1429 15.5639
" />
<path d="M31.8286 16.3639
L31.8286 15.5639
" />
<path d="M31.8286 15.5639
L32.2857 16.3639
" />
<path d="M32.2857 16.3639
L32.2857 15.5639
" />
<path d="M32.6286 16.1353
L33.0095 16.1353
" />
<path d="M32.5524 16.3639
L32.8190 15.5639
" />
<path d="M32.8190 15.5639
L33.0857 16.3639
" />
<path d="M33.7333 16.3639
L33.3524 16.3639
" />
<path d="M33.3524 16.3639
L33.3524 15.5639
" />
<path d="M33.8095 16.4400
L34.4190 16.4400
" />
<path d="M34.7619 15.5639
L34.8381 15.5639
" />
<path d="M34.8381 15.5639
L34.9143 15.6019
" />
<path d="M34.9143 15.6019
L34.9524 15.6400
" />
<path d="M34.9524 15.6400
L34.9905 15.7162
" />
<path d="M34.9905 15.7162
L35.0286 15.8686
" />
<path d="M35.0286 15.8686
L35.0286 16.0591
" />
<path d="M35.0286 16.0591
L34.9905 16.2115
" />
<path d="M34.9905 16.2115
L34.9524 16.2877
" />
<path d="M34.9524 16.2877
L34.9143 16.3258
" />
<path d="M34.9143 16.3258
L34.8381 16.3639
" />
<path d="M34.8381 16.3639
L34.7619 16.3639
" />
<path d="M34.7619 16.3639
L34.6857 16.3258
" />
<path d="M34.6857 16.3258
L34.6476 16.2877
" />
<path d="M34.6476 16.2877
L34.6095 16.2115
" />
<path d="M34.6095 16.2115
L34.5714 16.0591
" />
<path d="M34.5714 16.0591
L34.5714 15.8686
" />
<path d="M34.5714 15.8686
L34.6095 15.7162
" />
<path d="M34.6095 15.7162
L34.6476 15.6400
" />
<path d="M34.6476 15.6400
L34.6857 15.6019
" />
<path d="M34.6857 15.6019
L34.7619 15.5639
" />
<path d="M35.3333 15.6400
L35.3714 15.6019
" />
<path d="M35.3714 15.6019
L35.4476 15.5639
" />
<path d="M35.4476 15.5639
L35.6381 15.5639
" />
<path d="M35.6381 15.5639
L35.7143 15.6019
" />
<path d="M35.7143 15.6019
L35.7524 15.6400
" />
<path d="M35.7524 15.6400
L35.7905 15.7162
" />
<path d="M35.7905 15.7162
L35.7905 15.7924
" />
<path d="M35.7905 15.7924
L35.7524 15.9067
" />
<path d="M35.7524 15.9067
L35.2952 16.3639
" />
<path d="M35.2952 16.3639
L35.7905 16.3639
" />
<path d="M36.5143 15.5639
L36.1333 15.5639
" />
<path d="M36.1333 15.5639
L36.0952 15.9448
" />
<path d="M36.0952 15.9448
L36.1333 15.9067
" />
<path d="M36.1333 15.9067
L36.2095 15.8686
" />
<path d="M36.2095 15.8686
L36.4000 15.8686
" />
<path d="M36.4000 15.8686
L36.4762 15.9067
" />
<path d="M36.4762 15.9067
L36.5143 15.9448
" />
<path d="M36.5143 15.9448
L36.5524 16.0210
" />
<path d="M36.5524 16.0210
L36.5524 16.2115
" />
<path d="M36.5524 16.2115
L36.5143 16.2877
" />
<path d="M36.5143 16.2877
L36.4762 16.3258
" />
<path d="M36.4762 16.3258
L36.4000 16.3639
" />
<path d="M36.4000 16.3639
L36.2095 16.3639
" />
<path d="M36.2095 16.3639
L36.1333 16.3258
" />
<path d="M36.1333 16.3258
L36.0952 16.2877
" />
</g><text x="30.0000" y="29.4000"
textLength="13.3810" font-size="1.0667" lengthAdjust="spacingAndGlyphs"
text-anchor="middle" opacity="0" stroke-opacity="0">C2  DOGLEG_045_025</text>
<g class="stroked-text"><desc>C2  DOGLEG_045_025</desc>
<path d="M24.0571 29.2877
L24.0190 29.3258
" />
<path d="M24.0190 29.3258
L23.9048 29.3639
" />
<path d="M23.9048 29.3639
L23.8286 29.3639
" />
<path d="M23.8286 29.3639
L23.7143 29.3258
" />
<path d="M23.7143 29.3258
L23.6381 29.2496
" />
<path d="M23.6381 29.2496
L23.6000 29.1734
" />
<path d="M23.6000 29.1734
L23.5619 29.0210
" />
<path d="M23.5619 29.0210
L23.5619 28.9067
" />
<path d="M23.5619 28.9067
L23.6000 28.7543
" />
<path d="M23.6000 28.7543
L23.6381 28.6781
" />
<path d="M23.6381 28.6781
L23.7143 28.6019
" />
<path d="M23.7143 28.6019
L23.8286 28.5639
" />
<path d="M23.8286 28.5639
L23.9048 28.5639
" />
<path d="M23.9048 28.5639
L24.0190 28.6019
" />
<path d="M24.0190 28.6019
L24.0571 28.6400
" />
<path d="M24.3619 28.6400
L24.4000 28.6019
" />
<path d="M24.4000 28.6019
L24.4762 28.5639
" />
<path d="M24.4762 28.5639
L24.6667 28.5639
" />
<path d="M24.6667 28.5639
L24.7429 28.6019
" />
<path d="M24.7429 28.6019
L24.7810 28.6400
" />
<path d="M24.7810 28.6400
L24.8190 28.7162
" />
<path d="M24.8190 28.7162
L24.8190 28.7924
" />
<path d="M24.8190 28.7924
L24.7810 28.9067
" />
<path d="M24.7810 28.9067
L24.3238 29.3639
" />
<path d="M24.3238 29.3639
L24.8190 29.3639
" />
<path d="M26.3810 29.3639
L26.3810 28.5639
" />
<path d="M26.3810 28.5639
L26.5714 28.5639
" />
<path d="M26.5714 28.5639
L26.6857 28.6019
" />
<path d="M26.6857 28.6019
L26.7619 28.6781
" />
<path d="M26.7619 28.6781
L26.8000 28.7543
" />
<path d="M26.8000 28.7543
L26.8381 28.9067
" />
<path d="M26.8381 28.9067
L26.8381 29.0210
" />
<path d="M26.8381 29.0210
L26.8000 29.1734
" />
<path d="M26.8000 29.1734
L26.7619 29.2496
" />
<path d="M26.7619 29.2496
L26.6857 29.3258
" />
<path d="M26.6857 29.3258
L26.5714 29.3639
" />
<path d="M26.5714 29.3639
L26.3810 29.3639
" />
<path d="M27.3333 28.5639
L27.4857 28.5639
" />
<path d="M27.4857 28.5639
L27.5619 28.6019
" />
<path d="M27.5619 28.6019
L27.6381 28.6781
" />
<path d="M27.6381 28.6781
L27.6762 28.8305
" />
<path d="M27.6762 28.8305
L27.6762 29.0972
" />
<path d="M27.6762 29.0972
L27.6381 29.2496
" />
<path d="M27.6381 29.2496
L27.5619 29.3258
" />
<path d="M27.5619 29.3258
L27.4857 29.3639
" />
<path d="M27.4857 29.3639
L27.3333 29.3639
" />
<path d="M27.3333 29.3639
L27.2571 29.3258
" />
<path d="M27.2571 29.3258
L27.1810 29.2496
" />
<path d="M27.1810 29.2496
L27.1429 29.0972
" />
<path d="M27.1429 29.0972
L27.1429 28.8305
" />
<path d="M27.1429 28.8305
L27.1810 28.6781
" />
<path d="M27.1810 28.6781
L27.2571 28.6019
" />
<path d="M27.2571 28.6019
L27.3333 28.5639
" />
<path d="M28.4381 28.6019
L28.3619 28.5639
" />
<path d="M28.3619 28.5639
L28.2476 28.5639
" />
<path d="M28.2476 28.5639
L28.1333 28.6019
" />
<path d="M28.1333 28.6019
L28.0571 28.6781
" />
<path d="M28.0571 28.6781
L28.0190 28.7543
" />
<path d="M28.0190 28.7543
L27.9810 28.9067
" />
<path d="M27.9810 28.9067
L27.9810 29.0210
" />
<path d="M27.9810 29.0210
L28.0190 29.1734
" />
<path d="M28.0190 29.1734
L28.0571 29.2496
" />
<path d="M28.0571 29.2496
L28.1333 29.3258
" />
<path d="M28.1333 29.3258
L28.2476 29.3639
" />
<path d="M28.2476 29.3639
L28.3238 29.3639
" />
<path d="M28.3238 29.3639
L28.4381 29.3258
" />
<path d="M28.4381 29.3258
L28.4762 29.2877
" />
<path d="M28.4762 29.2877
L28.4762 29.0210
" />
<path d="M28.4762 29.0210
L28.3238 29.0210
" />
<path d="M29.2000 29.3639
L28.8190 29.3639
" />
<path d="M28.8190 29.3639
L28.8190 28.5639
" />
<path d="M29.4667 28.9448
L29.7333 28.9448
" />
<path d="M29.8476 29.3639
L29.4667 29.3639
" />
<path d="M29.4667 29.3639
L29.4667 28.5639
" />
<path d="M29.4667 28.5639
L29.8476 28.5639
" />
<path d="M30.6095 28.6019
L30.5333 28.5639
" />
<path d="M30.5333 28.5639
L30.4190 28.5639
" />
<path d="M30.4190 28.5639
L30.3048 28.6019
" />
<path d="M30.3048 28.6019
L30.2286 28.6781
" />
<path d="M30.2286 28.6781
L30.1905 28.7543
" />
<path d="M30.1905 28.7543
L30.1524 28.9067
" />
<path d="M30.1524 28.9067
L30.1524 29.0210
" />
<path d="M30.1524 29.0210
L30.1905 29.1734
" />
<path d="M30.1905 29.1734
L30.2286 29.2496
" />
<path d="M30.2286 29.2496
L30.3048 29.3258
" />
<path d="M30.3048 29.3258
L30.4190 29.3639
" />
<path d="M30.4190 29.3639
L30.4952 29.3639
" />
<path d="M30.4952 29.3639
L30.6095 29.3258
" />
<path d="M30.6095 29.3258
L30.6476 29.2877
" />
<path d="M30.6476 29.2877
L30.6476 29.0210
" />
<path d="M30.6476 29.0210
L30.4952 29.0210
" />
<path d="M30.8000 29.4400
L31.4095 29.4400
" />
<path d="M31.7524 28.5639
L31.8286 28.5639
" />
<path d="M31.8286 28.5639
L31.9048 28.6019
" />
<path d="M31.9048 28.6019
L31.9429 28.6400
" />
<path d="M31.9429 28.6400
L31.9810 28.7162
" />
<path d="M31.9810 28.7162
L32.0190 28.8686
" />
<path d="M32.0190 28.8686
L32.0190 29.0591
" />
<path d="M32.0190 29.0591
L31.9810 29.2115
" />
<path d="M31.9810 29.2115
L31.9429 29.2877
" />
<path d="M31.9429 29.2877
L31.9048 29.3258
" />
<path d="M31.9048 29.3258
L31.8286 29.3639
" />
<path d="M31.8286 29.3639
L31.7524 29.3639
" />
<path d="M31.7524 29.3639
L31.6762 29.3258
" />
<path d="M31.6762 29.3258
L31.6381 29.2877
" />
<path d="M31.6381 29.2877
L31.6000 29.2115
" />
<path d="M31.6000 29.2115
L31.5619 29.0591
" />
<path d="M31.5619 29.0591
L31.5619 28.8686
" />
<path d="M31.5619 28.8686
L31.6000 28.7162
" />
<path d="M31.6000 28.7162
L31.6381 28.6400
" />
<path d="M31.6381 28.6400
L31.6762 28.6019
" />
<path d="M31.6762 28.6019
L31.7524 28.5639
" />
<path d="M32.7048 28.8305
L32.7048 29.3639
" />
<path d="M32.5143 28.5258
L32.3238 29.0972
" />
<path d="M32.3238 29.0972
L32.8190 29.0972
" />
<path d="M33.5048 28.5639
L33.1238 28.5639
" />
<path d="M33.1238 28.5639
L33.0857 28.9448
" />
<path d="M33.0857 28.9448
L33.1238 28.9067
" />
<path d="M33.1238 28.9067
L33.2000 28.8686
" />
<path d="M33.2000 28.8686
L33.3905 28.8686
" />
<path d="M33.3905 28.8686
L33.4667 28.9067
" />
<path d="M33.4667 28.9067
L33.5048 28.9448
" />
<path d="M33.5048 28.9448
L33.5429 29.0210
" />
<path d="M33.5429 29.0210
L33.5429 29.2115
" />
<path d="M33.5429 29.2115
L33.5048 29.2877
" />
<path d="M33.5048 29.2877
L33.4667 29.3258
" />
<path d="M33.4667 29.3258
L33.3905 29.3639
" />
<path d="M33.3905 29.3639
L33.2000 29.3639
" />
<path d="M33.2000 29.3639
L33.1238 29.3258
" />
<path d="M33.1238 29.3258
L33.0857 29.2877
" />
<path d="M33.6952 29.4400
L34.3048 29.4400
" />
<path d="M34.6476 28.5639
L34.7238 28.5639
" />
<path d="M34.7238 28.5639
L34.8000 28.6019
" />
<path d="M34.8000 28.6019
L34.8381 28.6400
" />
<path d="M34.8381 28.6400
L34.8762 28.7162
" />
<path d="M34.8762 28.7162
L34.9143 28.8686
" />
<path d="M34.9143 28.8686
L34.9143 29.0591
" />
<path d="M34.9143 29.0591
L34.8762 29.2115
" />
<path d="M34.8762 29.2115
L34.8381 29.2877
" />
<path d="M34.8381 29.2877
L34.8000 29.3258
" />
<path d="M34.8000 29.3258
L34.7238 29.3639
" />
<path d="M34.7238 29.3639
L34.6476 29.3639
" />
<path d="M34.6476 29.3639
L34.5714 29.3258
" />
<path d="M34.5714 29.3258
L34.5333 29.2877
" />
<path d="M34.5333 29.2877
L34.4952 29.2115
" />
<path d="M34.4952 29.2115
L34.4571 29.0591
" />
<path d="M34.4571 29.0591
L34.4571 28.8686
" />
<path d="M34.4571 28.8686
L34.4952 28.7162
" />
<path d="M34.4952 28.7162
L34.5333 28.6400
" />
<path d="M34.5333 28.6400
L34.5714 28.6019
" />
<path d="M34.5714 28.6019
L34.6476 28.5639
" />
<path d="M35.2190 28.6400
L35.2571 28.6019
" />
<path d="M35.2571 28.6019
L35.3333 28.5639
" />
<path d="M35.3333 28.5639
L35.5238 28.5639
" />
<path d="M35.5238 28.5639
L35.6000 28.6019
" />
<path d="M35.6000 28.6019
L35.6381 28.6400
" />
<path d="M35.6381 28.6400
L35.6762 28.7162
" />
<path d="M35.6762 28.7162
L35.6762 28.7924
" />
<path d="M35.6762 28.7924
L35.6381 28.9067
" />
<path d="M35.6381 28.9067
L35.1810 29.3639
" />
<path d="M35.1810 29.3639
L35.6762 29.3639
" />
<path d="M36.4000 28.5639
L36.0190 28.5639
" />
<path d="M36.0190 28.5639
L35.9810 28.9448
" />
<path d="M35.9810 28.9448
L36.0190 28.9067
" />
<path d="M36.0190 28.9067
L36.0952 28.8686
" />
<path d="M36.0952 28.8686
L36.2857 28.8686
" />
<path d="M36.2857 28.8686
L36.3619 28.9067
" />
<path d="M36.3619 28.9067
L36.4000 28.9448
" />
<path d="M36.4000 28.9448
L36.4381 29.0210
" />
<path d="M36.4381 29.0210
L36.4381 29.2115
" />
<path d="M36.4381 29.2115
L36.4000 29.2877
" />
<path d="M36.4000 29.2877
L36.3619 29.3258
" />
<path d="M36.3619 29.3258
L36.2857 29.3639
" />
<path d="M36.2857 29.3639
L36.0952 29.3639
" />
<path d="M36.0952 29.3639
L36.0190 29.3258
" />
<path d="M36.0190 29.3258
L35.9810 29.2877
" />
</g><text x="30.0000" y="42.4000"
textLength="12.3524" font-size="1.0667" lengthAdjust="spacingAndGlyphs"
text-anchor="middle" opacity="0" stroke-opacity="0">C3  MIXED_045_050</text>
<g class="stroked-text"><desc>C3  MIXED_045_050</desc>
<path d="M24.5714 42.2877
L24.5333 42.3258
" />
<path d="M24.5333 42.3258
L24.4190 42.3639
" />
<path d="M24.4190 42.3639
L24.3429 42.3639
" />
<path d="M24.3429 42.3639
L24.2286 42.3258
" />
<path d="M24.2286 42.3258
L24.1524 42.2496
" />
<path d="M24.1524 42.2496
L24.1143 42.1734
" />
<path d="M24.1143 42.1734
L24.0762 42.0210
" />
<path d="M24.0762 42.0210
L24.0762 41.9067
" />
<path d="M24.0762 41.9067
L24.1143 41.7543
" />
<path d="M24.1143 41.7543
L24.1524 41.6781
" />
<path d="M24.1524 41.6781
L24.2286 41.6019
" />
<path d="M24.2286 41.6019
L24.3429 41.5639
" />
<path d="M24.3429 41.5639
L24.4190 41.5639
" />
<path d="M24.4190 41.5639
L24.5333 41.6019
" />
<path d="M24.5333 41.6019
L24.5714 41.6400
" />
<path d="M24.8381 41.5639
L25.3333 41.5639
" />
<path d="M25.3333 41.5639
L25.0667 41.8686
" />
<path d="M25.0667 41.8686
L25.1809 41.8686
" />
<path d="M25.1809 41.8686
L25.2571 41.9067
" />
<path d="M25.2571 41.9067
L25.2952 41.9448
" />
<path d="M25.2952 41.9448
L25.3333 42.0210
" />
<path d="M25.3333 42.0210
L25.3333 42.2115
" />
<path d="M25.3333 42.2115
L25.2952 42.2877
" />
<path d="M25.2952 42.2877
L25.2571 42.3258
" />
<path d="M25.2571 42.3258
L25.1809 42.3639
" />
<path d="M25.1809 42.3639
L24.9524 42.3639
" />
<path d="M24.9524 42.3639
L24.8762 42.3258
" />
<path d="M24.8762 42.3258
L24.8381 42.2877
" />
<path d="M26.8952 42.3639
L26.8952 41.5639
" />
<path d="M26.8952 41.5639
L27.1619 42.1353
" />
<path d="M27.1619 42.1353
L27.4286 41.5639
" />
<path d="M27.4286 41.5639
L27.4286 42.3639
" />
<path d="M27.8095 42.3639
L27.8095 41.5639
" />
<path d="M28.1143 41.5639
L28.6476 42.3639
" />
<path d="M28.6476 41.5639
L28.1143 42.3639
" />
<path d="M28.9524 41.9448
L29.2190 41.9448
" />
<path d="M29.3333 42.3639
L28.9524 42.3639
" />
<path d="M28.9524 42.3639
L28.9524 41.5639
" />
<path d="M28.9524 41.5639
L29.3333 41.5639
" />
<path d="M29.6762 42.3639
L29.6762 41.5639
" />
<path d="M29.6762 41.5639
L29.8667 41.5639
" />
<path d="M29.8667 41.5639
L29.9810 41.6019
" />
<path d="M29.9810 41.6019
L30.0571 41.6781
" />
<path d="M30.0571 41.6781
L30.0952 41.7543
" />
<path d="M30.0952 41.7543
L30.1333 41.9067
" />
<path d="M30.1333 41.9067
L30.1333 42.0210
" />
<path d="M30.1333 42.0210
L30.0952 42.1734
" />
<path d="M30.0952 42.1734
L30.0571 42.2496
" />
<path d="M30.0571 42.2496
L29.9810 42.3258
" />
<path d="M29.9810 42.3258
L29.8667 42.3639
" />
<path d="M29.8667 42.3639
L29.6762 42.3639
" />
<path d="M30.2857 42.4400
L30.8952 42.4400
" />
<path d="M31.2381 41.5639
L31.3143 41.5639
" />
<path d="M31.3143 41.5639
L31.3905 41.6019
" />
<path d="M31.3905 41.6019
L31.4286 41.6400
" />
<path d="M31.4286 41.6400
L31.4667 41.7162
" />
<path d="M31.4667 41.7162
L31.5048 41.8686
" />
<path d="M31.5048 41.8686
L31.5048 42.0591
" />
<path d="M31.5048 42.0591
L31.4667 42.2115
" />
<path d="M31.4667 42.2115
L31.4286 42.2877
" />
<path d="M31.4286 42.2877
L31.3905 42.3258
" />
<path d="M31.3905 42.3258
L31.3143 42.3639
" />
<path d="M31.3143 42.3639
L31.2381 42.3639
" />
<path d="M31.2381 42.3639
L31.1619 42.3258
" />
<path d="M31.1619 42.3258
L31.1238 42.2877
" />
<path d="M31.1238 42.2877
L31.0857 42.2115
" />
<path d="M31.0857 42.2115
L31.0476 42.0591
" />
<path d="M31.0476 42.0591
L31.0476 41.8686
" />
<path d="M31.0476 41.8686
L31.0857 41.7162
" />
<path d="M31.0857 41.7162
L31.1238 41.6400
" />
<path d="M31.1238 41.6400
L31.1619 41.6019
" />
<path d="M31.1619 41.6019
L31.2381 41.5639
" />
<path d="M32.1905 41.8305
L32.1905 42.3639
" />
<path d="M32.0000 41.5258
L31.8095 42.0972
" />
<path d="M31.8095 42.0972
L32.3048 42.0972
" />
<path d="M32.9905 41.5639
L32.6095 41.5639
" />
<path d="M32.6095 41.5639
L32.5714 41.9448
" />
<path d="M32.5714 41.9448
L32.6095 41.9067
" />
<path d="M32.6095 41.9067
L32.6857 41.8686
" />
<path d="M32.6857 41.8686
L32.8762 41.8686
" />
<path d="M32.8762 41.8686
L32.9524 41.9067
" />
<path d="M32.9524 41.9067
L32.9905 41.9448
" />
<path d="M32.9905 41.9448
L33.0286 42.0210
" />
<path d="M33.0286 42.0210
L33.0286 42.2115
" />
<path d="M33.0286 42.2115
L32.9905 42.2877
" />
<path d="M32.9905 42.2877
L32.9524 42.3258
" />
<path d="M32.9524 42.3258
L32.8762 42.3639
" />
<path d="M32.8762 42.3639
L32.6857 42.3639
" />
<path d="M32.6857 42.3639
L32.6095 42.3258
" />
<path d="M32.6095 42.3258
L32.5714 42.2877
" />
<path d="M33.1810 42.4400
L33.7905 42.4400
" />
<path d="M34.1333 41.5639
L34.2095 41.5639
" />
<path d="M34.2095 41.5639
L34.2857 41.6019
" />
<path d="M34.2857 41.6019
L34.3238 41.6400
" />
<path d="M34.3238 41.6400
L34.3619 41.7162
" />
<path d="M34.3619 41.7162
L34.4000 41.8686
" />
<path d="M34.4000 41.8686
L34.4000 42.0591
" />
<path d="M34.4000 42.0591
L34.3619 42.2115
" />
<path d="M34.3619 42.2115
L34.3238 42.2877
" />
<path d="M34.3238 42.2877
L34.2857 42.3258
" />
<path d="M34.2857 42.3258
L34.2095 42.3639
" />
<path d="M34.2095 42.3639
L34.1333 42.3639
" />
<path d="M34.1333 42.3639
L34.0571 42.3258
" />
<path d="M34.0571 42.3258
L34.0190 42.2877
" />
<path d="M34.0190 42.2877
L33.9810 42.2115
" />
<path d="M33.9810 42.2115
L33.9429 42.0591
" />
<path d="M33.9429 42.0591
L33.9429 41.8686
" />
<path d="M33.9429 41.8686
L33.9810 41.7162
" />
<path d="M33.9810 41.7162
L34.0190 41.6400
" />
<path d="M34.0190 41.6400
L34.0571 41.6019
" />
<path d="M34.0571 41.6019
L34.1333 41.5639
" />
<path d="M35.1238 41.5639
L34.7429 41.5639
" />
<path d="M34.7429 41.5639
L34.7048 41.9448
" />
<path d="M34.7048 41.9448
L34.7429 41.9067
" />
<path d="M34.7429 41.9067
L34.8190 41.8686
" />
<path d="M34.8190 41.8686
L35.0095 41.8686
" />
<path d="M35.0095 41.8686
L35.0857 41.9067
" />
<path d="M35.0857 41.9067
L35.1238 41.9448
" />
<path d="M35.1238 41.9448
L35.1619 42.0210
" />
<path d="M35.1619 42.0210
L35.1619 42.2115
" />
<path d="M35.1619 42.2115
L35.1238 42.2877
" />
<path d="M35.1238 42.2877
L35.0857 42.3258
" />
<path d="M35.0857 42.3258
L35.0095 42.3639
" />
<path d="M35.0095 42.3639
L34.8190 42.3639
" />
<path d="M34.8190 42.3639
L34.7429 42.3258
" />
<path d="M34.7429 42.3258
L34.7048 42.2877
" />
<path d="M35.6571 41.5639
L35.7333 41.5639
" />
<path d="M35.7333 41.5639
L35.8095 41.6019
" />
<path d="M35.8095 41.6019
L35.8476 41.6400
" />
<path d="M35.8476 41.6400
L35.8857 41.7162
" />
<path d="M35.8857 41.7162
L35.9238 41.8686
" />
<path d="M35.9238 41.8686
L35.9238 42.0591
" />
<path d="M35.9238 42.0591
L35.8857 42.2115
" />
<path d="M35.8857 42.2115
L35.8476 42.2877
" />
<path d="M35.8476 42.2877
L35.8095 42.3258
" />
<path d="M35.8095 42.3258
L35.7333 42.3639
" />
<path d="M35.7333 42.3639
L35.6571 42.3639
" />
<path d="M35.6571 42.3639
L35.5810 42.3258
" />
<path d="M35.5810 42.3258
L35.5429 42.2877
" />
<path d="M35.5429 42.2877
L35.5048 42.2115
" />
<path d="M35.5048 42.2115
L35.4667 42.0591
" />
<path d="M35.4667 42.0591
L35.4667 41.8686
" />
<path d="M35.4667 41.8686
L35.5048 41.7162
" />
<path d="M35.5048 41.7162
L35.5429 41.6400
" />
<path d="M35.5429 41.6400
L35.5810 41.6019
" />
<path d="M35.5810 41.6019
L35.6571 41.5639
" />
</g><text x="30.0000" y="57.4000"
textLength="14.2571" font-size="1.0667" lengthAdjust="spacingAndGlyphs"
text-anchor="middle" opacity="0" stroke-opacity="0">C4  SHORT_NOTCH_100</text>
<g class="stroked-text"><desc>C4  SHORT_NOTCH_100</desc>
<path d="M23.6190 57.2877
L23.5810 57.3258
" />
<path d="M23.5810 57.3258
L23.4667 57.3639
" />
<path d="M23.4667 57.3639
L23.3905 57.3639
" />
<path d="M23.3905 57.3639
L23.2762 57.3258
" />
<path d="M23.2762 57.3258
L23.2000 57.2496
" />
<path d="M23.2000 57.2496
L23.1619 57.1734
" />
<path d="M23.1619 57.1734
L23.1238 57.0210
" />
<path d="M23.1238 57.0210
L23.1238 56.9067
" />
<path d="M23.1238 56.9067
L23.1619 56.7543
" />
<path d="M23.1619 56.7543
L23.2000 56.6781
" />
<path d="M23.2000 56.6781
L23.2762 56.6019
" />
<path d="M23.2762 56.6019
L23.3905 56.5639
" />
<path d="M23.3905 56.5639
L23.4667 56.5639
" />
<path d="M23.4667 56.5639
L23.5810 56.6019
" />
<path d="M23.5810 56.6019
L23.6190 56.6400
" />
<path d="M24.3048 56.8305
L24.3048 57.3639
" />
<path d="M24.1143 56.5258
L23.9238 57.0972
" />
<path d="M23.9238 57.0972
L24.4190 57.0972
" />
<path d="M25.9048 57.3258
L26.0190 57.3639
" />
<path d="M26.0190 57.3639
L26.2095 57.3639
" />
<path d="M26.2095 57.3639
L26.2857 57.3258
" />
<path d="M26.2857 57.3258
L26.3238 57.2877
" />
<path d="M26.3238 57.2877
L26.3619 57.2115
" />
<path d="M26.3619 57.2115
L26.3619 57.1353
" />
<path d="M26.3619 57.1353
L26.3238 57.0591
" />
<path d="M26.3238 57.0591
L26.2857 57.0210
" />
<path d="M26.2857 57.0210
L26.2095 56.9829
" />
<path d="M26.2095 56.9829
L26.0571 56.9448
" />
<path d="M26.0571 56.9448
L25.9810 56.9067
" />
<path d="M25.9810 56.9067
L25.9429 56.8686
" />
<path d="M25.9429 56.8686
L25.9048 56.7924
" />
<path d="M25.9048 56.7924
L25.9048 56.7162
" />
<path d="M25.9048 56.7162
L25.9429 56.6400
" />
<path d="M25.9429 56.6400
L25.9810 56.6019
" />
<path d="M25.9810 56.6019
L26.0571 56.5639
" />
<path d="M26.0571 56.5639
L26.2476 56.5639
" />
<path d="M26.2476 56.5639
L26.3619 56.6019
" />
<path d="M26.7048 57.3639
L26.7048 56.5639
" />
<path d="M26.7048 56.9448
L27.1619 56.9448
" />
<path d="M27.1619 57.3639
L27.1619 56.5639
" />
<path d="M27.6952 56.5639
L27.8476 56.5639
" />
<path d="M27.8476 56.5639
L27.9238 56.6019
" />
<path d="M27.9238 56.6019
L28.0000 56.6781
" />
<path d="M28.0000 56.6781
L28.0381 56.8305
" />
<path d="M28.0381 56.8305
L28.0381 57.0972
" />
<path d="M28.0381 57.0972
L28.0000 57.2496
" />
<path d="M28.0000 57.2496
L27.9238 57.3258
" />
<path d="M27.9238 57.3258
L27.8476 57.3639
" />
<path d="M27.8476 57.3639
L27.6952 57.3639
" />
<path d="M27.6952 57.3639
L27.6190 57.3258
" />
<path d="M27.6190 57.3258
L27.5429 57.2496
" />
<path d="M27.5429 57.2496
L27.5048 57.0972
" />
<path d="M27.5048 57.0972
L27.5048 56.8305
" />
<path d="M27.5048 56.8305
L27.5429 56.6781
" />
<path d="M27.5429 56.6781
L27.6190 56.6019
" />
<path d="M27.6190 56.6019
L27.6952 56.5639
" />
<path d="M28.8381 57.3639
L28.5714 56.9829
" />
<path d="M28.3810 57.3639
L28.3810 56.5639
" />
<path d="M28.3810 56.5639
L28.6857 56.5639
" />
<path d="M28.6857 56.5639
L28.7619 56.6019
" />
<path d="M28.7619 56.6019
L28.8000 56.6400
" />
<path d="M28.8000 56.6400
L28.8381 56.7162
" />
<path d="M28.8381 56.7162
L28.8381 56.8305
" />
<path d="M28.8381 56.8305
L28.8000 56.9067
" />
<path d="M28.8000 56.9067
L28.7619 56.9448
" />
<path d="M28.7619 56.9448
L28.6857 56.9829
" />
<path d="M28.6857 56.9829
L28.3810 56.9829
" />
<path d="M29.0667 56.5639
L29.5238 56.5639
" />
<path d="M29.2952 57.3639
L29.2952 56.5639
" />
<path d="M29.6000 57.4400
L30.2095 57.4400
" />
<path d="M30.4000 57.3639
L30.4000 56.5639
" />
<path d="M30.4000 56.5639
L30.8571 57.3639
" />
<path d="M30.8571 57.3639
L30.8571 56.5639
" />
<path d="M31.3905 56.5639
L31.5429 56.5639
" />
<path d="M31.5429 56.5639
L31.6190 56.6019
" />
<path d="M31.6190 56.6019
L31.6952 56.6781
" />
<path d="M31.6952 56.6781
L31.7333 56.8305
" />
<path d="M31.7333 56.8305
L31.7333 57.0972
" />
<path d="M31.7333 57.0972
L31.6952 57.2496
" />
<path d="M31.6952 57.2496
L31.6190 57.3258
" />
<path d="M31.6190 57.3258
L31.5429 57.3639
" />
<path d="M31.5429 57.3639
L31.3905 57.3639
" />
<path d="M31.3905 57.3639
L31.3143 57.3258
" />
<path d="M31.3143 57.3258
L31.2381 57.2496
" />
<path d="M31.2381 57.2496
L31.2000 57.0972
" />
<path d="M31.2000 57.0972
L31.2000 56.8305
" />
<path d="M31.2000 56.8305
L31.2381 56.6781
" />
<path d="M31.2381 56.6781
L31.3143 56.6019
" />
<path d="M31.3143 56.6019
L31.3905 56.5639
" />
<path d="M31.9619 56.5639
L32.4190 56.5639
" />
<path d="M32.1905 57.3639
L32.1905 56.5639
" />
<path d="M33.1429 57.2877
L33.1048 57.3258
" />
<path d="M33.1048 57.3258
L32.9905 57.3639
" />
<path d="M32.9905 57.3639
L32.9143 57.3639
" />
<path d="M32.9143 57.3639
L32.8000 57.3258
" />
<path d="M32.8000 57.3258
L32.7238 57.2496
" />
<path d="M32.7238 57.2496
L32.6857 57.1734
" />
<path d="M32.6857 57.1734
L32.6476 57.0210
" />
<path d="M32.6476 57.0210
L32.6476 56.9067
" />
<path d="M32.6476 56.9067
L32.6857 56.7543
" />
<path d="M32.6857 56.7543
L32.7238 56.6781
" />
<path d="M32.7238 56.6781
L32.8000 56.6019
" />
<path d="M32.8000 56.6019
L32.9143 56.5639
" />
<path d="M32.9143 56.5639
L32.9905 56.5639
" />
<path d="M32.9905 56.5639
L33.1048 56.6019
" />
<path d="M33.1048 56.6019
L33.1429 56.6400
" />
<path d="M33.4857 57.3639
L33.4857 56.5639
" />
<path d="M33.4857 56.9448
L33.9429 56.9448
" />
<path d="M33.9429 57.3639
L33.9429 56.5639
" />
<path d="M34.1333 57.4400
L34.7429 57.4400
" />
<path d="M35.3524 57.3639
L34.8952 57.3639
" />
<path d="M35.1238 57.3639
L35.1238 56.5639
" />
<path d="M35.1238 56.5639
L35.0476 56.6781
" />
<path d="M35.0476 56.6781
L34.9714 56.7543
" />
<path d="M34.9714 56.7543
L34.8952 56.7924
" />
<path d="M35.8476 56.5639
L35.9238 56.5639
" />
<path d="M35.9238 56.5639
L36.0000 56.6019
" />
<path d="M36.0000 56.6019
L36.0381 56.6400
" />
<path d="M36.0381 56.6400
L36.0762 56.7162
" />
<path d="M36.0762 56.7162
L36.1143 56.8686
" />
<path d="M36.1143 56.8686
L36.1143 57.0591
" />
<path d="M36.1143 57.0591
L36.0762 57.2115
" />
<path d="M36.0762 57.2115
L36.0381 57.2877
" />
<path d="M36.0381 57.2877
L36.0000 57.3258
" />
<path d="M36.0000 57.3258
L35.9238 57.3639
" />
<path d="M35.9238 57.3639
L35.8476 57.3639
" />
<path d="M35.8476 57.3639
L35.7714 57.3258
" />
<path d="M35.7714 57.3258
L35.7333 57.2877
" />
<path d="M35.7333 57.2877
L35.6952 57.2115
" />
<path d="M35.6952 57.2115
L35.6571 57.0591
" />
<path d="M35.6571 57.0591
L35.6571 56.8686
" />
<path d="M35.6571 56.8686
L35.6952 56.7162
" />
<path d="M35.6952 56.7162
L35.7333 56.6400
" />
<path d="M35.7333 56.6400
L35.7714 56.6019
" />
<path d="M35.7714 56.6019
L35.8476 56.5639
" />
<path d="M36.6095 56.5639
L36.6857 56.5639
" />
<path d="M36.6857 56.5639
L36.7619 56.6019
" />
<path d="M36.7619 56.6019
L36.8000 56.6400
" />
<path d="M36.8000 56.6400
L36.8381 56.7162
" />
<path d="M36.8381 56.7162
L36.8762 56.8686
" />
<path d="M36.8762 56.8686
L36.8762 57.0591
" />
<path d="M36.8762 57.0591
L36.8381 57.2115
" />
<path d="M36.8381 57.2115
L36.8000 57.2877
" />
<path d="M36.8000 57.2877
L36.7619 57.3258
" />
<path d="M36.7619 57.3258
L36.6857 57.3639
" />
<path d="M36.6857 57.3639
L36.6095 57.3639
" />
<path d="M36.6095 57.3639
L36.5333 57.3258
" />
<path d="M36.5333 57.3258
L36.4952 57.2877
" />
<path d="M36.4952 57.2877
L36.4571 57.2115
" />
<path d="M36.4571 57.2115
L36.4190 57.0591
" />
<path d="M36.4190 57.0591
L36.4190 56.8686
" />
<path d="M36.4190 56.8686
L36.4571 56.7162
" />
<path d="M36.4571 56.7162
L36.4952 56.6400
" />
<path d="M36.4952 56.6400
L36.5333 56.6019
" />
<path d="M36.5333 56.6019
L36.6095 56.5639
" />
</g><text x="30.0000" y="69.4000"
textLength="14.9810" font-size="1.0667" lengthAdjust="spacingAndGlyphs"
text-anchor="middle" opacity="0" stroke-opacity="0">C5  VIA_TRANSITION_050</text>
<g class="stroked-text"><desc>C5  VIA_TRANSITION_050</desc>
<path d="M23.2571 69.2877
L23.2190 69.3258
" />
<path d="M23.2190 69.3258
L23.1048 69.3639
" />
<path d="M23.1048 69.3639
L23.0286 69.3639
" />
<path d="M23.0286 69.3639
L22.9143 69.3258
" />
<path d="M22.9143 69.3258
L22.8381 69.2496
" />
<path d="M22.8381 69.2496
L22.8000 69.1734
" />
<path d="M22.8000 69.1734
L22.7619 69.0210
" />
<path d="M22.7619 69.0210
L22.7619 68.9067
" />
<path d="M22.7619 68.9067
L22.8000 68.7543
" />
<path d="M22.8000 68.7543
L22.8381 68.6781
" />
<path d="M22.8381 68.6781
L22.9143 68.6020
" />
<path d="M22.9143 68.6020
L23.0286 68.5639
" />
<path d="M23.0286 68.5639
L23.1048 68.5639
" />
<path d="M23.1048 68.5639
L23.2190 68.6020
" />
<path d="M23.2190 68.6020
L23.2571 68.6400
" />
<path d="M23.9810 68.5639
L23.6000 68.5639
" />
<path d="M23.6000 68.5639
L23.5619 68.9448
" />
<path d="M23.5619 68.9448
L23.6000 68.9067
" />
<path d="M23.6000 68.9067
L23.6762 68.8686
" />
<path d="M23.6762 68.8686
L23.8667 68.8686
" />
<path d="M23.8667 68.8686
L23.9429 68.9067
" />
<path d="M23.9429 68.9067
L23.9810 68.9448
" />
<path d="M23.9810 68.9448
L24.0190 69.0210
" />
<path d="M24.0190 69.0210
L24.0190 69.2115
" />
<path d="M24.0190 69.2115
L23.9810 69.2877
" />
<path d="M23.9810 69.2877
L23.9429 69.3258
" />
<path d="M23.9429 69.3258
L23.8667 69.3639
" />
<path d="M23.8667 69.3639
L23.6762 69.3639
" />
<path d="M23.6762 69.3639
L23.6000 69.3258
" />
<path d="M23.6000 69.3258
L23.5619 69.2877
" />
<path d="M25.4667 68.5639
L25.7333 69.3639
" />
<path d="M25.7333 69.3639
L26.0000 68.5639
" />
<path d="M26.2667 69.3639
L26.2667 68.5639
" />
<path d="M26.6095 69.1353
L26.9905 69.1353
" />
<path d="M26.5333 69.3639
L26.8000 68.5639
" />
<path d="M26.8000 68.5639
L27.0667 69.3639
" />
<path d="M27.1429 69.4400
L27.7524 69.4400
" />
<path d="M27.8286 68.5639
L28.2857 68.5639
" />
<path d="M28.0571 69.3639
L28.0571 68.5639
" />
<path d="M29.0095 69.3639
L28.7429 68.9829
" />
<path d="M28.5524 69.3639
L28.5524 68.5639
" />
<path d="M28.5524 68.5639
L28.8571 68.5639
" />
<path d="M28.8571 68.5639
L28.9333 68.6020
" />
<path d="M28.9333 68.6020
L28.9714 68.6400
" />
<path d="M28.9714 68.6400
L29.0095 68.7162
" />
<path d="M29.0095 68.7162
L29.0095 68.8305
" />
<path d="M29.0095 68.8305
L28.9714 68.9067
" />
<path d="M28.9714 68.9067
L28.9333 68.9448
" />
<path d="M28.9333 68.9448
L28.8571 68.9829
" />
<path d="M28.8571 68.9829
L28.5524 68.9829
" />
<path d="M29.3143 69.1353
L29.6952 69.1353
" />
<path d="M29.2381 69.3639
L29.5048 68.5639
" />
<path d="M29.5048 68.5639
L29.7714 69.3639
" />
<path d="M30.0381 69.3639
L30.0381 68.5639
" />
<path d="M30.0381 68.5639
L30.4952 69.3639
" />
<path d="M30.4952 69.3639
L30.4952 68.5639
" />
<path d="M30.8381 69.3258
L30.9524 69.3639
" />
<path d="M30.9524 69.3639
L31.1429 69.3639
" />
<path d="M31.1429 69.3639
L31.2190 69.3258
" />
<path d="M31.2190 69.3258
L31.2571 69.2877
" />
<path d="M31.2571 69.2877
L31.2952 69.2115
" />
<path d="M31.2952 69.2115
L31.2952 69.1353
" />
<path d="M31.2952 69.1353
L31.2571 69.0591
" />
<path d="M31.2571 69.0591
L31.2190 69.0210
" />
<path d="M31.2190 69.0210
L31.1429 68.9829
" />
<path d="M31.1429 68.9829
L30.9905 68.9448
" />
<path d="M30.9905 68.9448
L30.9143 68.9067
" />
<path d="M30.9143 68.9067
L30.8762 68.8686
" />
<path d="M30.8762 68.8686
L30.8381 68.7924
" />
<path d="M30.8381 68.7924
L30.8381 68.7162
" />
<path d="M30.8381 68.7162
L30.8762 68.6400
" />
<path d="M30.8762 68.6400
L30.9143 68.6020
" />
<path d="M30.9143 68.6020
L30.9905 68.5639
" />
<path d="M30.9905 68.5639
L31.1810 68.5639
" />
<path d="M31.1810 68.5639
L31.2952 68.6020
" />
<path d="M31.6381 69.3639
L31.6381 68.5639
" />
<path d="M31.9048 68.5639
L32.3619 68.5639
" />
<path d="M32.1333 69.3639
L32.1333 68.5639
" />
<path d="M32.6286 69.3639
L32.6286 68.5639
" />
<path d="M33.1619 68.5639
L33.3143 68.5639
" />
<path d="M33.3143 68.5639
L33.3905 68.6020
" />
<path d="M33.3905 68.6020
L33.4667 68.6781
" />
<path d="M33.4667 68.6781
L33.5048 68.8305
" />
<path d="M33.5048 68.8305
L33.5048 69.0972
" />
<path d="M33.5048 69.0972
L33.4667 69.2496
" />
<path d="M33.4667 69.2496
L33.3905 69.3258
" />
<path d="M33.3905 69.3258
L33.3143 69.3639
" />
<path d="M33.3143 69.3639
L33.1619 69.3639
" />
<path d="M33.1619 69.3639
L33.0857 69.3258
" />
<path d="M33.0857 69.3258
L33.0095 69.2496
" />
<path d="M33.0095 69.2496
L32.9714 69.0972
" />
<path d="M32.9714 69.0972
L32.9714 68.8305
" />
<path d="M32.9714 68.8305
L33.0095 68.6781
" />
<path d="M33.0095 68.6781
L33.0857 68.6020
" />
<path d="M33.0857 68.6020
L33.1619 68.5639
" />
<path d="M33.8476 69.3639
L33.8476 68.5639
" />
<path d="M33.8476 68.5639
L34.3048 69.3639
" />
<path d="M34.3048 69.3639
L34.3048 68.5639
" />
<path d="M34.4952 69.4400
L35.1048 69.4400
" />
<path d="M35.4476 68.5639
L35.5238 68.5639
" />
<path d="M35.5238 68.5639
L35.6000 68.6020
" />
<path d="M35.6000 68.6020
L35.6381 68.6400
" />
<path d="M35.6381 68.6400
L35.6762 68.7162
" />
<path d="M35.6762 68.7162
L35.7143 68.8686
" />
<path d="M35.7143 68.8686
L35.7143 69.0591
" />
<path d="M35.7143 69.0591
L35.6762 69.2115
" />
<path d="M35.6762 69.2115
L35.6381 69.2877
" />
<path d="M35.6381 69.2877
L35.6000 69.3258
" />
<path d="M35.6000 69.3258
L35.5238 69.3639
" />
<path d="M35.5238 69.3639
L35.4476 69.3639
" />
<path d="M35.4476 69.3639
L35.3714 69.3258
" />
<path d="M35.3714 69.3258
L35.3333 69.2877
" />
<path d="M35.3333 69.2877
L35.2952 69.2115
" />
<path d="M35.2952 69.2115
L35.2571 69.0591
" />
<path d="M35.2571 69.0591
L35.2571 68.8686
" />
<path d="M35.2571 68.8686
L35.2952 68.7162
" />
<path d="M35.2952 68.7162
L35.3333 68.6400
" />
<path d="M35.3333 68.6400
L35.3714 68.6020
" />
<path d="M35.3714 68.6020
L35.4476 68.5639
" />
<path d="M36.4381 68.5639
L36.0571 68.5639
" />
<path d="M36.0571 68.5639
L36.0190 68.9448
" />
<path d="M36.0190 68.9448
L36.0571 68.9067
" />
<path d="M36.0571 68.9067
L36.1333 68.8686
" />
<path d="M36.1333 68.8686
L36.3238 68.8686
" />
<path d="M36.3238 68.8686
L36.4000 68.9067
" />
<path d="M36.4000 68.9067
L36.4381 68.9448
" />
<path d="M36.4381 68.9448
L36.4762 69.0210
" />
<path d="M36.4762 69.0210
L36.4762 69.2115
" />
<path d="M36.4762 69.2115
L36.4381 69.2877
" />
<path d="M36.4381 69.2877
L36.4000 69.3258
" />
<path d="M36.4000 69.3258
L36.3238 69.3639
" />
<path d="M36.3238 69.3639
L36.1333 69.3639
" />
<path d="M36.1333 69.3639
L36.0571 69.3258
" />
<path d="M36.0571 69.3258
L36.0190 69.2877
" />
<path d="M36.9714 68.5639
L37.0476 68.5639
" />
<path d="M37.0476 68.5639
L37.1238 68.6020
" />
<path d="M37.1238 68.6020
L37.1619 68.6400
" />
<path d="M37.1619 68.6400
L37.2000 68.7162
" />
<path d="M37.2000 68.7162
L37.2381 68.8686
" />
<path d="M37.2381 68.8686
L37.2381 69.0591
" />
<path d="M37.2381 69.0591
L37.2000 69.2115
" />
<path d="M37.2000 69.2115
L37.1619 69.2877
" />
<path d="M37.1619 69.2877
L37.1238 69.3258
" />
<path d="M37.1238 69.3258
L37.0476 69.3639
" />
<path d="M37.0476 69.3639
L36.9714 69.3639
" />
<path d="M36.9714 69.3639
L36.8952 69.3258
" />
<path d="M36.8952 69.3258
L36.8571 69.2877
" />
<path d="M36.8571 69.2877
L36.8190 69.2115
" />
<path d="M36.8190 69.2115
L36.7810 69.0591
" />
<path d="M36.7810 69.0591
L36.7810 68.8686
" />
<path d="M36.7810 68.8686
L36.8190 68.7162
" />
<path d="M36.8190 68.7162
L36.8571 68.6400
" />
<path d="M36.8571 68.6400
L36.8952 68.6020
" />
<path d="M36.8952 68.6020
L36.9714 68.5639
" />
</g><text x="44.0000" y="91.4000"
textLength="13.9905" font-size="1.0667" lengthAdjust="spacingAndGlyphs"
text-anchor="middle" opacity="0" stroke-opacity="0">C7  CLEARANCE_B_025</text>
<g class="stroked-text"><desc>C7  CLEARANCE_B_025</desc>
<path d="M37.7524 91.2877
L37.7143 91.3258
" />
<path d="M37.7143 91.3258
L37.6000 91.3639
" />
<path d="M37.6000 91.3639
L37.5238 91.3639
" />
<path d="M37.5238 91.3639
L37.4095 91.3258
" />
<path d="M37.4095 91.3258
L37.3333 91.2496
" />
<path d="M37.3333 91.2496
L37.2952 91.1734
" />
<path d="M37.2952 91.1734
L37.2571 91.0210
" />
<path d="M37.2571 91.0210
L37.2571 90.9067
" />
<path d="M37.2571 90.9067
L37.2952 90.7543
" />
<path d="M37.2952 90.7543
L37.3333 90.6781
" />
<path d="M37.3333 90.6781
L37.4095 90.6020
" />
<path d="M37.4095 90.6020
L37.5238 90.5639
" />
<path d="M37.5238 90.5639
L37.6000 90.5639
" />
<path d="M37.6000 90.5639
L37.7143 90.6020
" />
<path d="M37.7143 90.6020
L37.7524 90.6400
" />
<path d="M38.0190 90.5639
L38.5524 90.5639
" />
<path d="M38.5524 90.5639
L38.2095 91.3639
" />
<path d="M40.5333 91.2877
L40.4952 91.3258
" />
<path d="M40.4952 91.3258
L40.3810 91.3639
" />
<path d="M40.3810 91.3639
L40.3048 91.3639
" />
<path d="M40.3048 91.3639
L40.1905 91.3258
" />
<path d="M40.1905 91.3258
L40.1143 91.2496
" />
<path d="M40.1143 91.2496
L40.0762 91.1734
" />
<path d="M40.0762 91.1734
L40.0381 91.0210
" />
<path d="M40.0381 91.0210
L40.0381 90.9067
" />
<path d="M40.0381 90.9067
L40.0762 90.7543
" />
<path d="M40.0762 90.7543
L40.1143 90.6781
" />
<path d="M40.1143 90.6781
L40.1905 90.6020
" />
<path d="M40.1905 90.6020
L40.3048 90.5639
" />
<path d="M40.3048 90.5639
L40.3810 90.5639
" />
<path d="M40.3810 90.5639
L40.4952 90.6020
" />
<path d="M40.4952 90.6020
L40.5333 90.6400
" />
<path d="M41.2571 91.3639
L40.8762 91.3639
" />
<path d="M40.8762 91.3639
L40.8762 90.5639
" />
<path d="M41.5238 90.9448
L41.7905 90.9448
" />
<path d="M41.9048 91.3639
L41.5238 91.3639
" />
<path d="M41.5238 91.3639
L41.5238 90.5639
" />
<path d="M41.5238 90.5639
L41.9048 90.5639
" />
<path d="M42.2095 91.1353
L42.5905 91.1353
" />
<path d="M42.1333 91.3639
L42.4000 90.5639
" />
<path d="M42.4000 90.5639
L42.6667 91.3639
" />
<path d="M43.3905 91.3639
L43.1238 90.9829
" />
<path d="M42.9333 91.3639
L42.9333 90.5639
" />
<path d="M42.9333 90.5639
L43.2381 90.5639
" />
<path d="M43.2381 90.5639
L43.3143 90.6020
" />
<path d="M43.3143 90.6020
L43.3524 90.6400
" />
<path d="M43.3524 90.6400
L43.3905 90.7162
" />
<path d="M43.3905 90.7162
L43.3905 90.8305
" />
<path d="M43.3905 90.8305
L43.3524 90.9067
" />
<path d="M43.3524 90.9067
L43.3143 90.9448
" />
<path d="M43.3143 90.9448
L43.2381 90.9829
" />
<path d="M43.2381 90.9829
L42.9333 90.9829
" />
<path d="M43.6952 91.1353
L44.0762 91.1353
" />
<path d="M43.6190 91.3639
L43.8857 90.5639
" />
<path d="M43.8857 90.5639
L44.1524 91.3639
" />
<path d="M44.4190 91.3639
L44.4190 90.5639
" />
<path d="M44.4190 90.5639
L44.8762 91.3639
" />
<path d="M44.8762 91.3639
L44.8762 90.5639
" />
<path d="M45.7143 91.2877
L45.6762 91.3258
" />
<path d="M45.6762 91.3258
L45.5619 91.3639
" />
<path d="M45.5619 91.3639
L45.4857 91.3639
" />
<path d="M45.4857 91.3639
L45.3714 91.3258
" />
<path d="M45.3714 91.3258
L45.2952 91.2496
" />
<path d="M45.2952 91.2496
L45.2571 91.1734
" />
<path d="M45.2571 91.1734
L45.2190 91.0210
" />
<path d="M45.2190 91.0210
L45.2190 90.9067
" />
<path d="M45.2190 90.9067
L45.2571 90.7543
" />
<path d="M45.2571 90.7543
L45.2952 90.6781
" />
<path d="M45.2952 90.6781
L45.3714 90.6020
" />
<path d="M45.3714 90.6020
L45.4857 90.5639
" />
<path d="M45.4857 90.5639
L45.5619 90.5639
" />
<path d="M45.5619 90.5639
L45.6762 90.6020
" />
<path d="M45.6762 90.6020
L45.7143 90.6400
" />
<path d="M46.0571 90.9448
L46.3238 90.9448
" />
<path d="M46.4381 91.3639
L46.0571 91.3639
" />
<path d="M46.0571 91.3639
L46.0571 90.5639
" />
<path d="M46.0571 90.5639
L46.4381 90.5639
" />
<path d="M46.5905 91.4400
L47.2000 91.4400
" />
<path d="M47.6571 90.9448
L47.7714 90.9829
" />
<path d="M47.7714 90.9829
L47.8095 91.0210
" />
<path d="M47.8095 91.0210
L47.8476 91.0972
" />
<path d="M47.8476 91.0972
L47.8476 91.2115
" />
<path d="M47.8476 91.2115
L47.8095 91.2877
" />
<path d="M47.8095 91.2877
L47.7714 91.3258
" />
<path d="M47.7714 91.3258
L47.6952 91.3639
" />
<path d="M47.6952 91.3639
L47.3905 91.3639
" />
<path d="M47.3905 91.3639
L47.3905 90.5639
" />
<path d="M47.3905 90.5639
L47.6571 90.5639
" />
<path d="M47.6571 90.5639
L47.7333 90.6020
" />
<path d="M47.7333 90.6020
L47.7714 90.6400
" />
<path d="M47.7714 90.6400
L47.8095 90.7162
" />
<path d="M47.8095 90.7162
L47.8095 90.7924
" />
<path d="M47.8095 90.7924
L47.7714 90.8686
" />
<path d="M47.7714 90.8686
L47.7333 90.9067
" />
<path d="M47.7333 90.9067
L47.6571 90.9448
" />
<path d="M47.6571 90.9448
L47.3905 90.9448
" />
<path d="M48.0000 91.4400
L48.6095 91.4400
" />
<path d="M48.9524 90.5639
L49.0286 90.5639
" />
<path d="M49.0286 90.5639
L49.1048 90.6020
" />
<path d="M49.1048 90.6020
L49.1429 90.6400
" />
<path d="M49.1429 90.6400
L49.1810 90.7162
" />
<path d="M49.1810 90.7162
L49.2190 90.8686
" />
<path d="M49.2190 90.8686
L49.2190 91.0591
" />
<path d="M49.2190 91.0591
L49.1810 91.2115
" />
<path d="M49.1810 91.2115
L49.1429 91.2877
" />
<path d="M49.1429 91.2877
L49.1048 91.3258
" />
<path d="M49.1048 91.3258
L49.0286 91.3639
" />
<path d="M49.0286 91.3639
L48.9524 91.3639
" />
<path d="M48.9524 91.3639
L48.8762 91.3258
" />
<path d="M48.8762 91.3258
L48.8381 91.2877
" />
<path d="M48.8381 91.2877
L48.8000 91.2115
" />
<path d="M48.8000 91.2115
L48.7619 91.0591
" />
<path d="M48.7619 91.0591
L48.7619 90.8686
" />
<path d="M48.7619 90.8686
L48.8000 90.7162
" />
<path d="M48.8000 90.7162
L48.8381 90.6400
" />
<path d="M48.8381 90.6400
L48.8762 90.6020
" />
<path d="M48.8762 90.6020
L48.9524 90.5639
" />
<path d="M49.5238 90.6400
L49.5619 90.6020
" />
<path d="M49.5619 90.6020
L49.6381 90.5639
" />
<path d="M49.6381 90.5639
L49.8286 90.5639
" />
<path d="M49.8286 90.5639
L49.9048 90.6020
" />
<path d="M49.9048 90.6020
L49.9429 90.6400
" />
<path d="M49.9429 90.6400
L49.9810 90.7162
" />
<path d="M49.9810 90.7162
L49.9810 90.7924
" />
<path d="M49.9810 90.7924
L49.9429 90.9067
" />
<path d="M49.9429 90.9067
L49.4857 91.3639
" />
<path d="M49.4857 91.3639
L49.9810 91.3639
" />
<path d="M50.7048 90.5639
L50.3238 90.5639
" />
<path d="M50.3238 90.5639
L50.2857 90.9448
" />
<path d="M50.2857 90.9448
L50.3238 90.9067
" />
<path d="M50.3238 90.9067
L50.4000 90.8686
" />
<path d="M50.4000 90.8686
L50.5905 90.8686
" />
<path d="M50.5905 90.8686
L50.6667 90.9067
" />
<path d="M50.6667 90.9067
L50.7048 90.9448
" />
<path d="M50.7048 90.9448
L50.7429 91.0210
" />
<path d="M50.7429 91.0210
L50.7429 91.2115
" />
<path d="M50.7429 91.2115
L50.7048 91.2877
" />
<path d="M50.7048 91.2877
L50.6667 91.3258
" />
<path d="M50.6667 91.3258
L50.5905 91.3639
" />
<path d="M50.5905 91.3639
L50.4000 91.3639
" />
<path d="M50.4000 91.3639
L50.3238 91.3258
" />
<path d="M50.3238 91.3258
L50.2857 91.2877
" />
</g></g>
<g style="fill:none; 
stroke:#F2EDA1; stroke-width:0.1800; stroke-opacity:1; 
stroke-linecap:round; stroke-linejoin:round;">
<text x="30.0000" y="5.1250"
textLength="32.4329" font-size="1.6667" lengthAdjust="spacingAndGlyphs"
text-anchor="middle" opacity="0" stroke-opacity="0">KiCad track-rounding test fixture</text>
<g class="stroked-text"><desc>KiCad track-rounding test fixture</desc>
<path d="M14.2262 5.0689
L14.2262 3.8189
" />
<path d="M14.9405 5.0689
L14.4048 4.3546
" />
<path d="M14.9405 3.8189
L14.2262 4.5332
" />
<path d="M15.4762 5.0689
L15.4762 4.2356
" />
<path d="M15.4762 3.8189
L15.4167 3.8784
" />
<path d="M15.4167 3.8784
L15.4762 3.9380
" />
<path d="M15.4762 3.9380
L15.5357 3.8784
" />
<path d="M15.5357 3.8784
L15.4762 3.8189
" />
<path d="M15.4762 3.8189
L15.4762 3.9380
" />
<path d="M16.7857 4.9499
L16.7262 5.0094
" />
<path d="M16.7262 5.0094
L16.5476 5.0689
" />
<path d="M16.5476 5.0689
L16.4286 5.0689
" />
<path d="M16.4286 5.0689
L16.2500 5.0094
" />
<path d="M16.2500 5.0094
L16.1310 4.8903
" />
<path d="M16.1310 4.8903
L16.0714 4.7713
" />
<path d="M16.0714 4.7713
L16.0119 4.5332
" />
<path d="M16.0119 4.5332
L16.0119 4.3546
" />
<path d="M16.0119 4.3546
L16.0714 4.1165
" />
<path d="M16.0714 4.1165
L16.1310 3.9975
" />
<path d="M16.1310 3.9975
L16.2500 3.8784
" />
<path d="M16.2500 3.8784
L16.4286 3.8189
" />
<path d="M16.4286 3.8189
L16.5476 3.8189
" />
<path d="M16.5476 3.8189
L16.7262 3.8784
" />
<path d="M16.7262 3.8784
L16.7857 3.9380
" />
<path d="M17.8571 5.0689
L17.8571 4.4142
" />
<path d="M17.8571 4.4142
L17.7976 4.2951
" />
<path d="M17.7976 4.2951
L17.6786 4.2356
" />
<path d="M17.6786 4.2356
L17.4405 4.2356
" />
<path d="M17.4405 4.2356
L17.3214 4.2951
" />
<path d="M17.8571 5.0094
L17.7381 5.0689
" />
<path d="M17.7381 5.0689
L17.4405 5.0689
" />
<path d="M17.4405 5.0689
L17.3214 5.0094
" />
<path d="M17.3214 5.0094
L17.2619 4.8903
" />
<path d="M17.2619 4.8903
L17.2619 4.7713
" />
<path d="M17.2619 4.7713
L17.3214 4.6522
" />
<path d="M17.3214 4.6522
L17.4405 4.5927
" />
<path d="M17.4405 4.5927
L17.7381 4.5927
" />
<path d="M17.7381 4.5927
L17.8571 4.5332
" />
<path d="M18.9881 5.0689
L18.9881 3.8189
" />
<path d="M18.9881 5.0094
L18.8690 5.0689
" />
<path d="M18.8690 5.0689
L18.6310 5.0689
" />
<path d="M18.6310 5.0689
L18.5119 5.0094
" />
<path d="M18.5119 5.0094
L18.4524 4.9499
" />
<path d="M18.4524 4.9499
L18.3929 4.8308
" />
<path d="M18.3929 4.8308
L18.3929 4.4737
" />
<path d="M18.3929 4.4737
L18.4524 4.3546
" />
<path d="M18.4524 4.3546
L18.5119 4.2951
" />
<path d="M18.5119 4.2951
L18.6310 4.2356
" />
<path d="M18.6310 4.2356
L18.8690 4.2356
" />
<path d="M18.8690 4.2356
L18.9881 4.2951
" />
<path d="M20.3571 4.2356
L20.8333 4.2356
" />
<path d="M20.5357 3.8189
L20.5357 4.8903
" />
<path d="M20.5357 4.8903
L20.5952 5.0094
" />
<path d="M20.5952 5.0094
L20.7143 5.0689
" />
<path d="M20.7143 5.0689
L20.8333 5.0689
" />
<path d="M21.2500 5.0689
L21.2500 4.2356
" />
<path d="M21.2500 4.4737
L21.3095 4.3546
" />
<path d="M21.3095 4.3546
L21.3690 4.2951
" />
<path d="M21.3690 4.2951
L21.4881 4.2356
" />
<path d="M21.4881 4.2356
L21.6071 4.2356
" />
<path d="M22.5595 5.0689
L22.5595 4.4142
" />
<path d="M22.5595 4.4142
L22.5000 4.2951
" />
<path d="M22.5000 4.2951
L22.3810 4.2356
" />
<path d="M22.3810 4.2356
L22.1429 4.2356
" />
<path d="M22.1429 4.2356
L22.0238 4.2951
" />
<path d="M22.5595 5.0094
L22.4405 5.0689
" />
<path d="M22.4405 5.0689
L22.1429 5.0689
" />
<path d="M22.1429 5.0689
L22.0238 5.0094
" />
<path d="M22.0238 5.0094
L21.9643 4.8903
" />
<path d="M21.9643 4.8903
L21.9643 4.7713
" />
<path d="M21.9643 4.7713
L22.0238 4.6522
" />
<path d="M22.0238 4.6522
L22.1429 4.5927
" />
<path d="M22.1429 4.5927
L22.4405 4.5927
" />
<path d="M22.4405 4.5927
L22.5595 4.5332
" />
<path d="M23.6905 5.0094
L23.5714 5.0689
" />
<path d="M23.5714 5.0689
L23.3333 5.0689
" />
<path d="M23.3333 5.0689
L23.2143 5.0094
" />
<path d="M23.2143 5.0094
L23.1548 4.9499
" />
<path d="M23.1548 4.9499
L23.0952 4.8308
" />
<path d="M23.0952 4.8308
L23.0952 4.4737
" />
<path d="M23.0952 4.4737
L23.1548 4.3546
" />
<path d="M23.1548 4.3546
L23.2143 4.2951
" />
<path d="M23.2143 4.2951
L23.3333 4.2356
" />
<path d="M23.3333 4.2356
L23.5714 4.2356
" />
<path d="M23.5714 4.2356
L23.6905 4.2951
" />
<path d="M24.2262 5.0689
L24.2262 3.8189
" />
<path d="M24.3452 4.5927
L24.7024 5.0689
" />
<path d="M24.7024 4.2356
L24.2262 4.7118
" />
<path d="M25.2381 4.5927
L26.1905 4.5927
" />
<path d="M26.7857 5.0689
L26.7857 4.2356
" />
<path d="M26.7857 4.4737
L26.8452 4.3546
" />
<path d="M26.8452 4.3546
L26.9048 4.2951
" />
<path d="M26.9048 4.2951
L27.0238 4.2356
" />
<path d="M27.0238 4.2356
L27.1429 4.2356
" />
<path d="M27.7381 5.0689
L27.6190 5.0094
" />
<path d="M27.6190 5.0094
L27.5595 4.9499
" />
<path d="M27.5595 4.9499
L27.5000 4.8308
" />
<path d="M27.5000 4.8308
L27.5000 4.4737
" />
<path d="M27.5000 4.4737
L27.5595 4.3546
" />
<path d="M27.5595 4.3546
L27.6190 4.2951
" />
<path d="M27.6190 4.2951
L27.7381 4.2356
" />
<path d="M27.7381 4.2356
L27.9167 4.2356
" />
<path d="M27.9167 4.2356
L28.0357 4.2951
" />
<path d="M28.0357 4.2951
L28.0952 4.3546
" />
<path d="M28.0952 4.3546
L28.1548 4.4737
" />
<path d="M28.1548 4.4737
L28.1548 4.8308
" />
<path d="M28.1548 4.8308
L28.0952 4.9499
" />
<path d="M28.0952 4.9499
L28.0357 5.0094
" />
<path d="M28.0357 5.0094
L27.9167 5.0689
" />
<path d="M27.9167 5.0689
L27.7381 5.0689
" />
<path d="M29.2262 4.2356
L29.2262 5.0689
" />
<path d="M28.6905 4.2356
L28.6905 4.8903
" />
<path d="M28.6905 4.8903
L28.7500 5.0094
" />
<path d="M28.7500 5.0094
L28.8690 5.0689
" />
<path d="M28.8690 5.0689
L29.0476 5.0689
" />
<path d="M29.0476 5.0689
L29.1667 5.0094
" />
<path d="M29.1667 5.0094
L29.2262 4.9499
" />
<path d="M29.8214 4.2356
L29.8214 5.0689
" />
<path d="M29.8214 4.3546
L29.8810 4.2951
" />
<path d="M29.8810 4.2951
L30.0000 4.2356
" />
<path d="M30.0000 4.2356
L30.1786 4.2356
" />
<path d="M30.1786 4.2356
L30.2976 4.2951
" />
<path d="M30.2976 4.2951
L30.3571 4.4142
" />
<path d="M30.3571 4.4142
L30.3571 5.0689
" />
<path d="M31.4881 5.0689
L31.4881 3.8189
" />
<path d="M31.4881 5.0094
L31.3690 5.0689
" />
<path d="M31.3690 5.0689
L31.1310 5.0689
" />
<path d="M31.1310 5.0689
L31.0119 5.0094
" />
<path d="M31.0119 5.0094
L30.9524 4.9499
" />
<path d="M30.9524 4.9499
L30.8929 4.8308
" />
<path d="M30.8929 4.8308
L30.8929 4.4737
" />
<path d="M30.8929 4.4737
L30.9524 4.3546
" />
<path d="M30.9524 4.3546
L31.0119 4.2951
" />
<path d="M31.0119 4.2951
L31.1310 4.2356
" />
<path d="M31.1310 4.2356
L31.3690 4.2356
" />
<path d="M31.3690 4.2356
L31.4881 4.2951
" />
<path d="M32.0833 5.0689
L32.0833 4.2356
" />
<path d="M32.0833 3.8189
L32.0238 3.8784
" />
<path d="M32.0238 3.8784
L32.0833 3.9380
" />
<path d="M32.0833 3.9380
L32.1429 3.8784
" />
<path d="M32.1429 3.8784
L32.0833 3.8189
" />
<path d="M32.0833 3.8189
L32.0833 3.9380
" />
<path d="M32.6786 4.2356
L32.6786 5.0689
" />
<path d="M32.6786 4.3546
L32.7381 4.2951
" />
<path d="M32.7381 4.2951
L32.8571 4.2356
" />
<path d="M32.8571 4.2356
L33.0357 4.2356
" />
<path d="M33.0357 4.2356
L33.1548 4.2951
" />
<path d="M33.1548 4.2951
L33.2143 4.4142
" />
<path d="M33.2143 4.4142
L33.2143 5.0689
" />
<path d="M34.3452 4.2356
L34.3452 5.2475
" />
<path d="M34.3452 5.2475
L34.2857 5.3665
" />
<path d="M34.2857 5.3665
L34.2262 5.4261
" />
<path d="M34.2262 5.4261
L34.1071 5.4856
" />
<path d="M34.1071 5.4856
L33.9286 5.4856
" />
<path d="M33.9286 5.4856
L33.8095 5.4261
" />
<path d="M34.3452 5.0094
L34.2262 5.0689
" />
<path d="M34.2262 5.0689
L33.9881 5.0689
" />
<path d="M33.9881 5.0689
L33.8690 5.0094
" />
<path d="M33.8690 5.0094
L33.8095 4.9499
" />
<path d="M33.8095 4.9499
L33.7500 4.8308
" />
<path d="M33.7500 4.8308
L33.7500 4.4737
" />
<path d="M33.7500 4.4737
L33.8095 4.3546
" />
<path d="M33.8095 4.3546
L33.8690 4.2951
" />
<path d="M33.8690 4.2951
L33.9881 4.2356
" />
<path d="M33.9881 4.2356
L34.2262 4.2356
" />
<path d="M34.2262 4.2356
L34.3452 4.2951
" />
<path d="M35.7143 4.2356
L36.1905 4.2356
" />
<path d="M35.8929 3.8189
L35.8929 4.8903
" />
<path d="M35.8929 4.8903
L35.9524 5.0094
" />
<path d="M35.9524 5.0094
L36.0714 5.0689
" />
<path d="M36.0714 5.0689
L36.1905 5.0689
" />
<path d="M37.0833 5.0094
L36.9643 5.0689
" />
<path d="M36.9643 5.0689
L36.7262 5.0689
" />
<path d="M36.7262 5.0689
L36.6071 5.0094
" />
<path d="M36.6071 5.0094
L36.5476 4.8903
" />
<path d="M36.5476 4.8903
L36.5476 4.4142
" />
<path d="M36.5476 4.4142
L36.6071 4.2951
" />
<path d="M36.6071 4.2951
L36.7262 4.2356
" />
<path d="M36.7262 4.2356
L36.9643 4.2356
" />
<path d="M36.9643 4.2356
L37.0833 4.2951
" />
<path d="M37.0833 4.2951
L37.1429 4.4142
" />
<path d="M37.1429 4.4142
L37.1429 4.5332
" />
<path d="M37.1429 4.5332
L36.5476 4.6522
" />
<path d="M37.6190 5.0094
L37.7381 5.0689
" />
<path d="M37.7381 5.0689
L37.9762 5.0689
" />
<path d="M37.9762 5.0689
L38.0952 5.0094
" />
<path d="M38.0952 5.0094
L38.1548 4.8903
" />
<path d="M38.1548 4.8903
L38.1548 4.8308
" />
<path d="M38.1548 4.8308
L38.0952 4.7118
" />
<path d="M38.0952 4.7118
L37.9762 4.6522
" />
<path d="M37.9762 4.6522
L37.7976 4.6522
" />
<path d="M37.7976 4.6522
L37.6786 4.5927
" />
<path d="M37.6786 4.5927
L37.6190 4.4737
" />
<path d="M37.6190 4.4737
L37.6190 4.4142
" />
<path d="M37.6190 4.4142
L37.6786 4.2951
" />
<path d="M37.6786 4.2951
L37.7976 4.2356
" />
<path d="M37.7976 4.2356
L37.9762 4.2356
" />
<path d="M37.9762 4.2356
L38.0952 4.2951
" />
<path d="M38.5119 4.2356
L38.9881 4.2356
" />
<path d="M38.6905 3.8189
L38.6905 4.8903
" />
<path d="M38.6905 4.8903
L38.7500 5.0094
" />
<path d="M38.7500 5.0094
L38.8690 5.0689
" />
<path d="M38.8690 5.0689
L38.9881 5.0689
" />
<path d="M40.1786 4.2356
L40.6548 4.2356
" />
<path d="M40.3571 5.0689
L40.3571 3.9975
" />
<path d="M40.3571 3.9975
L40.4167 3.8784
" />
<path d="M40.4167 3.8784
L40.5357 3.8189
" />
<path d="M40.5357 3.8189
L40.6548 3.8189
" />
<path d="M41.0714 5.0689
L41.0714 4.2356
" />
<path d="M41.0714 3.8189
L41.0119 3.8784
" />
<path d="M41.0119 3.8784
L41.0714 3.9380
" />
<path d="M41.0714 3.9380
L41.1310 3.8784
" />
<path d="M41.1310 3.8784
L41.0714 3.8189
" />
<path d="M41.0714 3.8189
L41.0714 3.9380
" />
<path d="M41.5476 5.0689
L42.2024 4.2356
" />
<path d="M41.5476 4.2356
L42.2024 5.0689
" />
<path d="M42.5000 4.2356
L42.9762 4.2356
" />
<path d="M42.6786 3.8189
L42.6786 4.8903
" />
<path d="M42.6786 4.8903
L42.7381 5.0094
" />
<path d="M42.7381 5.0094
L42.8571 5.0689
" />
<path d="M42.8571 5.0689
L42.9762 5.0689
" />
<path d="M43.9286 4.2356
L43.9286 5.0689
" />
<path d="M43.3929 4.2356
L43.3929 4.8903
" />
<path d="M43.3929 4.8903
L43.4524 5.0094
" />
<path d="M43.4524 5.0094
L43.5714 5.0689
" />
<path d="M43.5714 5.0689
L43.7500 5.0689
" />
<path d="M43.7500 5.0689
L43.8690 5.0094
" />
<path d="M43.8690 5.0094
L43.9286 4.9499
" />
<path d="M44.5238 5.0689
L44.5238 4.2356
" />
<path d="M44.5238 4.4737
L44.5833 4.3546
" />
<path d="M44.5833 4.3546
L44.6429 4.2951
" />
<path d="M44.6429 4.2951
L44.7619 4.2356
" />
<path d="M44.7619 4.2356
L44.8810 4.2356
" />
<path d="M45.7738 5.0094
L45.6548 5.0689
" />
<path d="M45.6548 5.0689
L45.4167 5.0689
" />
<path d="M45.4167 5.0689
L45.2976 5.0094
" />
<path d="M45.2976 5.0094
L45.2381 4.8903
" />
<path d="M45.2381 4.8903
L45.2381 4.4142
" />
<path d="M45.2381 4.4142
L45.2976 4.2951
" />
<path d="M45.2976 4.2951
L45.4167 4.2356
" />
<path d="M45.4167 4.2356
L45.6548 4.2356
" />
<path d="M45.6548 4.2356
L45.7738 4.2951
" />
<path d="M45.7738 4.2951
L45.8333 4.4142
" />
<path d="M45.8333 4.4142
L45.8333 4.5332
" />
<path d="M45.8333 4.5332
L45.2381 4.6522
" />
</g></g>
<g style="fill:none; 
stroke:#F2EDA1; stroke-width:0.1200; stroke-opacity:1; 
stroke-linecap:round; stroke-linejoin:round;">
<circle cx="53.0000" cy="19.0000" r="1.2000" /> 
<circle cx="53.0000" cy="84.0000" r="1.2000" /> 
<circle cx="7.0000" cy="32.0000" r="1.2000" /> 
<circle cx="53.0000" cy="32.0000" r="1.2000" /> 
<circle cx="7.0000" cy="84.0000" r="1.2000" /> 
<circle cx="7.0000" cy="60.0000" r="1.2000" /> 
<circle cx="53.0000" cy="88.0000" r="1.2000" /> 
<circle cx="7.0000" cy="88.0000" r="1.2000" /> 
<circle cx="53.0000" cy="60.0000" r="1.2000" /> 
<circle cx="7.0000" cy="19.0000" r="1.2000" /> 
<circle cx="7.0000" cy="72.0000" r="1.2000" /> 
<circle cx="53.0000" cy="50.0000" r="1.2000" /> 
<circle cx="7.0000" cy="45.0000" r="1.2000" /> 
</g>
<g style="fill:none; 
stroke:#D0D2CD; stroke-width:0.1500; stroke-opacity:1; 
stroke-linecap:round; stroke-linejoin:round;">
<path d="M0.0000 0.0000
L60.0000 0.0000
" />
<path d="M0.0000 94.0000
L0.0000 0.0000
" />
<path d="M60.0000 0.0000
L60.0000 94.0000
" />
<path d="M60.0000 94.0000
L0.0000 94.0000
" />
</g>
<g style="fill:#FFFFFF; fill-opacity:1.0000; stroke:none;">
<circle cx="25.0000" cy="78.0000" r="0.2500" /> 
</g> 
</svg>
